<svg width="852" height="742" viewBox="0 0 852 742" fill="none" xmlns="http://www.w3.org/2000/svg">
<g clip-path="url(#clip0_1216_453636)">
<path d="M767.609 385.797C767.72 477.467 732.287 565.61 668.759 631.697C664.929 635.707 660.996 639.621 656.959 643.437C650.809 649.287 644.452 654.911 637.889 660.307C576.491 710.892 499.843 739.317 420.309 740.997C417.659 741.057 414.999 741.087 412.329 741.087C348.899 741.087 269.119 707.207 196.719 660.307C190.729 656.427 184.792 652.457 178.909 648.397C176.159 646.517 173.422 644.611 170.699 642.677C142.775 622.96 116.27 601.307 91.379 577.877C75.0818 562.583 59.7994 546.241 45.629 528.957C-10.001 460.337 -22.271 398.507 57.039 385.797C66.429 384.297 75.5423 382.694 84.379 380.987C97.179 378.527 109.429 375.871 121.129 373.017C136.889 369.187 151.696 365.034 165.549 360.557C170.209 359.057 174.762 357.527 179.209 355.967C244.949 332.877 288.949 302.767 318.899 270.097C323.979 264.567 328.662 258.971 332.949 253.307C339.508 244.687 345.465 235.626 350.779 226.187C358.114 213.073 364.274 199.337 369.189 185.137L369.459 184.357C393.289 115.617 386.039 51.8574 412.329 30.5174C524.709 -60.7126 664.619 69.2074 730.289 222.417C733.599 230.137 736.712 237.904 739.629 245.717C740.939 249.207 742.202 252.704 743.419 256.207C746.619 265.337 749.522 274.491 752.129 283.667C753.129 287.167 754.082 290.664 754.989 294.157C755.959 297.927 756.889 301.687 757.749 305.447C764.139 332.977 767.609 360.127 767.609 385.797Z" fill="#E35D6A" fill-opacity="0.5"/>
<path d="M420.309 740.997C417.659 741.057 414.999 741.087 412.329 741.087C348.899 741.087 269.119 707.207 196.719 660.307C190.729 656.427 184.792 652.457 178.909 648.397L184.069 616.997L340.279 596.257L418.679 656.207L420.309 740.997Z" fill="#2F2E41"/>
<path d="M427.829 180.307H405.569C404.88 180.308 404.218 180.582 403.731 181.069C403.243 181.557 402.969 182.218 402.969 182.907V205.177C402.969 205.518 403.037 205.856 403.168 206.17C403.299 206.485 403.49 206.771 403.732 207.011C403.973 207.252 404.26 207.443 404.575 207.572C404.89 207.702 405.228 207.768 405.569 207.767H427.829C428.517 207.768 429.177 207.495 429.664 207.01C430.152 206.524 430.427 205.865 430.429 205.177V182.907C430.427 182.218 430.152 181.558 429.665 181.071C429.178 180.584 428.518 180.309 427.829 180.307Z" fill="white"/>
<path d="M427.829 218.257H405.569C404.88 218.258 404.218 218.532 403.731 219.019C403.243 219.507 402.969 220.168 402.969 220.857V243.127C402.969 243.468 403.037 243.806 403.168 244.12C403.299 244.435 403.49 244.721 403.732 244.961C403.973 245.202 404.26 245.393 404.575 245.522C404.89 245.652 405.228 245.718 405.569 245.717H427.829C428.517 245.718 429.177 245.445 429.664 244.96C430.152 244.474 430.427 243.815 430.429 243.127V220.857C430.427 220.168 430.152 219.508 429.665 219.021C429.178 218.534 428.518 218.259 427.829 218.257Z" fill="#E6E6E6"/>
<path d="M427.829 256.207H405.569C404.88 256.208 404.218 256.482 403.731 256.969C403.243 257.457 402.969 258.118 402.969 258.807V281.067C402.968 281.409 403.035 281.747 403.166 282.063C403.296 282.379 403.488 282.666 403.729 282.907C403.971 283.149 404.257 283.34 404.573 283.471C404.889 283.601 405.227 283.668 405.569 283.667H427.829C428.518 283.667 429.18 283.393 429.667 282.905C430.155 282.418 430.429 281.757 430.429 281.067V258.807C430.427 258.118 430.152 257.458 429.665 256.971C429.178 256.484 428.518 256.209 427.829 256.207Z" fill="#E6E6E6"/>
<path d="M430.389 296.297C430.278 295.698 429.962 295.157 429.494 294.766C429.027 294.376 428.438 294.16 427.829 294.157H405.569C404.88 294.158 404.218 294.432 403.731 294.919C403.243 295.407 402.969 296.068 402.969 296.757V319.017C402.968 319.359 403.035 319.697 403.166 320.013C403.296 320.329 403.487 320.616 403.729 320.857C403.971 321.099 404.257 321.29 404.573 321.421C404.889 321.551 405.227 321.618 405.569 321.617H427.829C428.518 321.617 429.18 321.343 429.667 320.855C430.155 320.368 430.429 319.707 430.429 319.017V296.757C430.431 296.603 430.418 296.449 430.389 296.297Z" fill="#E6E6E6"/>
<path d="M428.839 332.308C428.519 332.175 428.175 332.107 427.829 332.107H405.569C405.227 332.107 404.889 332.174 404.573 332.304C404.257 332.434 403.971 332.626 403.729 332.867C403.487 333.109 403.296 333.396 403.166 333.712C403.035 334.027 402.968 334.366 402.969 334.707V356.967C402.968 357.309 403.034 357.648 403.164 357.964C403.294 358.28 403.485 358.568 403.727 358.809C403.969 359.051 404.256 359.243 404.572 359.373C404.888 359.503 405.227 359.569 405.569 359.568H427.829C428.518 359.567 429.18 359.293 429.667 358.806C430.155 358.318 430.429 357.657 430.429 356.967V334.707C430.428 334.196 430.276 333.696 429.994 333.269C429.711 332.842 429.31 332.508 428.839 332.308Z" fill="#E6E6E6"/>
<path d="M474.589 180.307H452.329C451.64 180.308 450.978 180.582 450.491 181.069C450.003 181.557 449.729 182.218 449.729 182.907V205.177C449.729 205.518 449.797 205.856 449.928 206.17C450.059 206.485 450.25 206.771 450.492 207.011C450.733 207.252 451.02 207.443 451.335 207.572C451.65 207.702 451.988 207.768 452.329 207.767H474.589C475.277 207.768 475.937 207.495 476.424 207.01C476.912 206.524 477.187 205.865 477.189 205.177V182.907C477.187 182.218 476.912 181.558 476.425 181.071C475.938 180.584 475.278 180.309 474.589 180.307Z" fill="#E6E6E6"/>
<path d="M474.589 218.257H452.329C451.64 218.258 450.978 218.532 450.491 219.019C450.003 219.507 449.729 220.168 449.729 220.857V243.127C449.729 243.468 449.797 243.806 449.928 244.12C450.059 244.435 450.25 244.721 450.492 244.961C450.733 245.202 451.02 245.393 451.335 245.522C451.65 245.652 451.988 245.718 452.329 245.717H474.589C475.277 245.718 475.937 245.445 476.424 244.96C476.912 244.474 477.187 243.815 477.189 243.127V220.857C477.187 220.168 476.912 219.508 476.425 219.021C475.938 218.534 475.278 218.259 474.589 218.257Z" fill="#E35D6A"/>
<path d="M474.589 256.207H452.329C451.64 256.208 450.978 256.482 450.491 256.969C450.003 257.457 449.729 258.118 449.729 258.807V281.067C449.728 281.409 449.795 281.747 449.926 282.063C450.056 282.379 450.248 282.666 450.489 282.907C450.731 283.149 451.018 283.34 451.333 283.471C451.649 283.601 451.987 283.668 452.329 283.667H474.589C475.278 283.667 475.94 283.393 476.427 282.905C476.915 282.418 477.189 281.757 477.189 281.067V258.807C477.187 258.118 476.912 257.458 476.425 256.971C475.938 256.484 475.278 256.209 474.589 256.207Z" fill="#E35D6A"/>
<path d="M474.589 294.157H452.329C451.784 294.158 451.253 294.33 450.811 294.649C450.37 294.969 450.04 295.42 449.869 295.937C449.777 296.201 449.729 296.478 449.729 296.757V319.017C449.728 319.359 449.795 319.697 449.926 320.013C450.056 320.329 450.247 320.616 450.489 320.857C450.731 321.099 451.017 321.29 451.333 321.421C451.649 321.551 451.987 321.618 452.329 321.617H474.589C475.278 321.617 475.94 321.343 476.427 320.855C476.915 320.368 477.189 319.707 477.189 319.017V296.757C477.187 296.068 476.912 295.408 476.425 294.921C475.938 294.434 475.278 294.159 474.589 294.157Z" fill="#E35D6A"/>
<path d="M474.589 332.107H452.329C451.987 332.107 451.649 332.174 451.333 332.304C451.018 332.434 450.731 332.626 450.489 332.867C450.248 333.109 450.056 333.396 449.926 333.712C449.795 334.027 449.728 334.366 449.729 334.707V356.967C449.728 357.309 449.795 357.647 449.926 357.963C450.056 358.279 450.248 358.566 450.489 358.807C450.731 359.049 451.018 359.241 451.333 359.371C451.649 359.501 451.987 359.568 452.329 359.568H474.589C475.278 359.567 475.94 359.293 476.427 358.806C476.915 358.318 477.189 357.657 477.189 356.967V334.707C477.189 334.018 476.915 333.357 476.427 332.869C475.94 332.382 475.278 332.108 474.589 332.107Z" fill="#E6E6E6"/>
<path d="M521.349 180.307H499.089C498.4 180.308 497.738 180.582 497.251 181.069C496.763 181.557 496.489 182.218 496.489 182.907V205.177C496.489 205.518 496.557 205.856 496.688 206.17C496.819 206.485 497.01 206.771 497.252 207.011C497.493 207.252 497.78 207.443 498.095 207.572C498.41 207.702 498.748 207.768 499.089 207.767H521.349C522.037 207.768 522.697 207.495 523.184 207.01C523.672 206.524 523.947 205.865 523.949 205.177V182.907C523.947 182.218 523.672 181.558 523.185 181.071C522.698 180.584 522.038 180.309 521.349 180.307Z" fill="#E35D6A"/>
<path d="M521.349 218.257H499.089C498.4 218.258 497.738 218.532 497.251 219.019C496.763 219.507 496.489 220.168 496.489 220.857V243.127C496.489 243.468 496.557 243.806 496.688 244.12C496.819 244.435 497.01 244.721 497.252 244.961C497.493 245.202 497.78 245.393 498.095 245.522C498.41 245.652 498.748 245.718 499.089 245.717H521.349C522.037 245.718 522.697 245.445 523.184 244.96C523.672 244.474 523.947 243.815 523.949 243.127V220.857C523.947 220.168 523.672 219.508 523.185 219.021C522.698 218.534 522.038 218.259 521.349 218.257Z" fill="#E35D6A"/>
<path d="M521.349 256.207H499.089C498.4 256.208 497.738 256.482 497.251 256.969C496.763 257.457 496.489 258.118 496.489 258.807V281.067C496.488 281.409 496.555 281.747 496.686 282.063C496.816 282.379 497.008 282.666 497.249 282.907C497.491 283.149 497.778 283.34 498.093 283.471C498.409 283.601 498.747 283.668 499.089 283.667H521.349C522.038 283.667 522.7 283.393 523.187 282.905C523.675 282.418 523.949 281.757 523.949 281.067V258.807C523.947 258.118 523.672 257.458 523.185 256.971C522.698 256.484 522.038 256.209 521.349 256.207Z" fill="#E6E6E6"/>
<path d="M521.349 294.157H499.089C498.4 294.158 497.738 294.432 497.251 294.919C496.763 295.407 496.489 296.068 496.489 296.757V319.017C496.488 319.359 496.555 319.697 496.686 320.013C496.816 320.329 497.008 320.616 497.249 320.857C497.491 321.099 497.778 321.29 498.093 321.421C498.409 321.551 498.747 321.618 499.089 321.617H521.349C522.038 321.617 522.7 321.343 523.187 320.855C523.675 320.368 523.949 319.707 523.949 319.017V296.757C523.947 296.068 523.672 295.408 523.185 294.921C522.698 294.434 522.038 294.159 521.349 294.157Z" fill="#E35D6A"/>
<path d="M521.349 332.107H499.089C498.747 332.107 498.409 332.174 498.093 332.304C497.778 332.434 497.491 332.626 497.249 332.867C497.008 333.109 496.816 333.396 496.686 333.712C496.555 334.027 496.488 334.366 496.489 334.707V356.967C496.488 357.309 496.555 357.647 496.686 357.963C496.816 358.279 497.008 358.566 497.249 358.807C497.491 359.049 497.778 359.241 498.093 359.371C498.409 359.501 498.747 359.568 499.089 359.568H521.349C522.038 359.567 522.7 359.293 523.187 358.806C523.675 358.318 523.949 357.657 523.949 356.967V334.707C523.949 334.018 523.675 333.357 523.187 332.869C522.7 332.382 522.038 332.108 521.349 332.107Z" fill="#E35D6A"/>
<path d="M568.109 180.307H545.849C545.16 180.308 544.498 180.582 544.011 181.069C543.523 181.557 543.249 182.218 543.249 182.907V205.177C543.249 205.518 543.317 205.856 543.448 206.17C543.579 206.485 543.77 206.771 544.012 207.011C544.253 207.252 544.54 207.443 544.855 207.572C545.17 207.702 545.508 207.768 545.849 207.767H568.109C568.797 207.768 569.457 207.495 569.944 207.01C570.432 206.524 570.707 205.865 570.709 205.177V182.907C570.707 182.218 570.432 181.558 569.945 181.071C569.458 180.584 568.798 180.309 568.109 180.307Z" fill="#E35D6A"/>
<path d="M568.109 218.257H545.849C545.16 218.258 544.498 218.532 544.011 219.019C543.523 219.507 543.249 220.168 543.249 220.857V243.127C543.249 243.468 543.317 243.806 543.448 244.12C543.579 244.435 543.77 244.721 544.012 244.961C544.253 245.202 544.54 245.393 544.855 245.522C545.17 245.652 545.508 245.718 545.849 245.717H568.109C568.797 245.718 569.457 245.445 569.944 244.96C570.432 244.474 570.707 243.815 570.709 243.127V220.857C570.707 220.168 570.432 219.508 569.945 219.021C569.458 218.534 568.798 218.259 568.109 218.257Z" fill="white"/>
<path d="M568.109 256.207H545.849C545.16 256.208 544.498 256.482 544.011 256.969C543.523 257.457 543.249 258.118 543.249 258.807V281.067C543.248 281.409 543.315 281.747 543.446 282.063C543.576 282.379 543.767 282.666 544.009 282.907C544.251 283.149 544.537 283.34 544.853 283.471C545.169 283.601 545.507 283.668 545.849 283.667H568.109C568.798 283.667 569.46 283.393 569.947 282.905C570.435 282.418 570.709 281.757 570.709 281.067V258.807C570.707 258.118 570.432 257.458 569.945 256.971C569.458 256.484 568.798 256.209 568.109 256.207Z" fill="white"/>
<path d="M568.109 294.157H545.849C545.16 294.158 544.498 294.432 544.011 294.919C543.523 295.407 543.249 296.068 543.249 296.757V319.017C543.248 319.359 543.315 319.697 543.446 320.013C543.576 320.329 543.767 320.616 544.009 320.857C544.251 321.099 544.537 321.29 544.853 321.421C545.169 321.551 545.507 321.618 545.849 321.617H568.109C568.798 321.617 569.46 321.343 569.947 320.855C570.435 320.368 570.709 319.707 570.709 319.017V296.757C570.707 296.068 570.432 295.408 569.945 294.921C569.458 294.434 568.798 294.159 568.109 294.157Z" fill="#E6E6E6"/>
<path d="M568.109 332.107H545.849C545.507 332.107 545.169 332.174 544.853 332.304C544.537 332.434 544.251 332.626 544.009 332.867C543.767 333.109 543.576 333.396 543.446 333.712C543.315 334.027 543.248 334.366 543.249 334.707V356.967C543.248 357.309 543.315 357.647 543.446 357.963C543.576 358.279 543.767 358.566 544.009 358.807C544.251 359.049 544.537 359.241 544.853 359.371C545.169 359.501 545.507 359.568 545.849 359.568H568.109C568.799 359.567 569.46 359.293 569.947 358.806C570.435 358.318 570.709 357.657 570.709 356.967V334.707C570.709 334.018 570.435 333.357 569.947 332.869C569.46 332.382 568.798 332.108 568.109 332.107Z" fill="#E35D6A"/>
<path d="M614.869 180.307H592.599C591.911 180.31 591.252 180.585 590.767 181.072C590.281 181.559 590.009 182.219 590.009 182.907V205.177C590.009 205.864 590.282 206.523 590.768 207.009C591.253 207.494 591.912 207.767 592.599 207.767H614.869C615.557 207.768 616.217 207.495 616.704 207.01C617.192 206.524 617.467 205.865 617.469 205.177V182.907C617.467 182.218 617.192 181.558 616.705 181.071C616.218 180.584 615.558 180.309 614.869 180.307Z" fill="white"/>
<path d="M614.869 218.257H592.599C591.911 218.26 591.252 218.535 590.767 219.022C590.281 219.509 590.009 220.169 590.009 220.857V243.127C590.009 243.814 590.282 244.473 590.768 244.959C591.253 245.444 591.912 245.717 592.599 245.717H614.869C615.557 245.718 616.217 245.445 616.704 244.96C617.192 244.474 617.467 243.815 617.469 243.127V220.857C617.467 220.168 617.192 219.508 616.705 219.021C616.218 218.534 615.558 218.259 614.869 218.257Z" fill="white"/>
<path d="M614.869 256.207H592.599C591.911 256.21 591.252 256.485 590.767 256.972C590.281 257.459 590.009 258.119 590.009 258.807V281.067C590.008 281.408 590.074 281.746 590.204 282.061C590.334 282.376 590.524 282.663 590.765 282.904C591.005 283.146 591.291 283.338 591.606 283.468C591.921 283.599 592.258 283.667 592.599 283.667H614.869C615.558 283.667 616.22 283.393 616.707 282.905C617.195 282.418 617.469 281.757 617.469 281.067V258.807C617.467 258.118 617.192 257.458 616.705 256.971C616.218 256.484 615.558 256.209 614.869 256.207Z" fill="white"/>
<path d="M614.869 294.157H592.599C591.911 294.16 591.252 294.435 590.767 294.922C590.281 295.409 590.009 296.069 590.009 296.757V319.017C590.008 319.358 590.074 319.696 590.204 320.011C590.334 320.326 590.524 320.613 590.765 320.854C591.005 321.096 591.291 321.288 591.606 321.418C591.921 321.549 592.258 321.617 592.599 321.617H614.869C615.558 321.617 616.22 321.343 616.707 320.855C617.195 320.368 617.469 319.707 617.469 319.017V296.757C617.467 296.068 617.192 295.408 616.705 294.921C616.218 294.434 615.558 294.159 614.869 294.157Z" fill="#E35D6A"/>
<path d="M614.869 332.107H592.599C592.258 332.108 591.921 332.175 591.606 332.306C591.291 332.437 591.005 332.629 590.765 332.87C590.524 333.112 590.334 333.398 590.204 333.714C590.074 334.029 590.008 334.367 590.009 334.707V356.967C590.008 357.308 590.074 357.646 590.204 357.961C590.334 358.276 590.524 358.563 590.765 358.805C591.005 359.046 591.291 359.238 591.606 359.369C591.921 359.5 592.258 359.567 592.599 359.568H614.869C615.558 359.567 616.22 359.293 616.707 358.806C617.195 358.318 617.469 357.657 617.469 356.967V334.707C617.469 334.018 617.195 333.357 616.707 332.869C616.22 332.382 615.558 332.108 614.869 332.107Z" fill="#E6E6E6"/>
<path d="M661.629 180.307H639.359C638.671 180.31 638.012 180.585 637.527 181.072C637.041 181.559 636.769 182.219 636.769 182.907V205.177C636.769 205.864 637.042 206.523 637.528 207.009C638.013 207.494 638.672 207.767 639.359 207.767H661.629C662.317 207.768 662.977 207.495 663.464 207.01C663.952 206.524 664.227 205.865 664.229 205.177V182.907C664.227 182.218 663.952 181.558 663.465 181.071C662.978 180.584 662.318 180.309 661.629 180.307Z" fill="white"/>
<path d="M661.629 218.257H639.359C638.671 218.26 638.012 218.535 637.527 219.022C637.041 219.509 636.769 220.169 636.769 220.857V243.127C636.769 243.814 637.042 244.473 637.528 244.959C638.013 245.444 638.672 245.717 639.359 245.717H661.629C662.317 245.718 662.977 245.445 663.464 244.96C663.952 244.474 664.227 243.815 664.229 243.127V220.857C664.227 220.168 663.952 219.508 663.465 219.021C662.978 218.534 662.318 218.259 661.629 218.257Z" fill="white"/>
<path d="M661.629 256.207H639.359C638.671 256.21 638.012 256.485 637.527 256.972C637.041 257.459 636.769 258.119 636.769 258.807V281.067C636.768 281.408 636.834 281.746 636.964 282.061C637.094 282.376 637.284 282.663 637.525 282.904C637.765 283.146 638.051 283.338 638.366 283.468C638.681 283.599 639.018 283.667 639.359 283.667H661.629C662.318 283.667 662.98 283.393 663.467 282.905C663.955 282.418 664.229 281.757 664.229 281.067V258.807C664.227 258.118 663.952 257.458 663.465 256.971C662.978 256.484 662.318 256.209 661.629 256.207Z" fill="#E35D6A"/>
<path d="M661.629 294.157H639.359C638.671 294.16 638.012 294.435 637.527 294.922C637.041 295.409 636.769 296.069 636.769 296.757V319.017C636.768 319.358 636.834 319.696 636.964 320.011C637.094 320.326 637.284 320.613 637.525 320.854C637.765 321.096 638.051 321.288 638.366 321.418C638.681 321.549 639.018 321.617 639.359 321.617H661.629C662.318 321.617 662.98 321.343 663.467 320.855C663.955 320.368 664.229 319.707 664.229 319.017V296.757C664.227 296.068 663.952 295.408 663.465 294.921C662.978 294.434 662.318 294.159 661.629 294.157Z" fill="#E6E6E6"/>
<path d="M661.629 332.107H639.359C639.018 332.108 638.681 332.175 638.366 332.306C638.051 332.437 637.765 332.629 637.525 332.87C637.284 333.112 637.094 333.398 636.964 333.714C636.834 334.029 636.768 334.367 636.769 334.707V356.967C636.768 357.308 636.834 357.646 636.964 357.961C637.094 358.276 637.284 358.563 637.525 358.805C637.765 359.046 638.051 359.238 638.366 359.369C638.681 359.5 639.018 359.567 639.359 359.568H661.629C662.318 359.567 662.98 359.293 663.467 358.806C663.955 358.318 664.229 357.657 664.229 356.967V334.707C664.229 334.018 663.955 333.357 663.467 332.869C662.98 332.382 662.318 332.108 661.629 332.107Z" fill="white"/>
<path d="M708.389 180.307H686.119C685.431 180.31 684.772 180.585 684.287 181.072C683.801 181.559 683.529 182.219 683.529 182.907V205.177C683.529 205.864 683.802 206.523 684.288 207.009C684.773 207.494 685.432 207.767 686.119 207.767H708.389C709.077 207.768 709.737 207.495 710.224 207.01C710.712 206.524 710.987 205.865 710.989 205.177V182.907C710.987 182.218 710.712 181.558 710.225 181.071C709.738 180.584 709.078 180.309 708.389 180.307Z" fill="#E35D6A"/>
<path d="M708.389 218.257H686.119C685.431 218.26 684.772 218.535 684.287 219.022C683.801 219.509 683.529 220.169 683.529 220.857V243.127C683.529 243.814 683.802 244.473 684.288 244.959C684.773 245.444 685.432 245.717 686.119 245.717H708.389C709.077 245.718 709.737 245.445 710.224 244.96C710.712 244.474 710.987 243.815 710.989 243.127V220.857C710.987 220.168 710.712 219.508 710.225 219.021C709.738 218.534 709.078 218.259 708.389 218.257Z" fill="#E35D6A"/>
<path d="M708.389 256.207H686.119C685.431 256.21 684.772 256.485 684.287 256.972C683.801 257.459 683.529 258.119 683.529 258.807V281.067C683.528 281.408 683.594 281.746 683.724 282.061C683.854 282.376 684.044 282.663 684.285 282.904C684.525 283.146 684.811 283.338 685.126 283.468C685.441 283.599 685.778 283.667 686.119 283.667H708.389C709.078 283.667 709.74 283.393 710.227 282.905C710.715 282.418 710.989 281.757 710.989 281.067V258.807C710.987 258.118 710.712 257.458 710.225 256.971C709.738 256.484 709.078 256.209 708.389 256.207Z" fill="#E6E6E6"/>
<path d="M708.389 294.157H686.119C685.431 294.16 684.772 294.435 684.287 294.922C683.801 295.409 683.529 296.069 683.529 296.757V319.017C683.528 319.358 683.594 319.696 683.724 320.011C683.854 320.326 684.044 320.613 684.285 320.854C684.525 321.096 684.811 321.288 685.126 321.418C685.441 321.549 685.778 321.617 686.119 321.617H708.389C709.078 321.617 709.74 321.343 710.227 320.855C710.715 320.368 710.989 319.707 710.989 319.017V296.757C710.987 296.068 710.712 295.408 710.225 294.921C709.738 294.434 709.078 294.159 708.389 294.157Z" fill="white"/>
<path d="M708.389 332.107H686.119C685.778 332.108 685.441 332.175 685.126 332.306C684.811 332.437 684.525 332.629 684.285 332.87C684.044 333.112 683.854 333.398 683.724 333.714C683.594 334.029 683.528 334.367 683.529 334.707V356.967C683.528 357.308 683.594 357.646 683.724 357.961C683.854 358.276 684.044 358.563 684.285 358.805C684.525 359.046 684.811 359.238 685.126 359.369C685.441 359.5 685.778 359.567 686.119 359.568H708.389C709.078 359.567 709.74 359.293 710.227 358.806C710.715 358.318 710.989 357.657 710.989 356.967V334.707C710.989 334.018 710.715 333.357 710.227 332.869C709.74 332.382 709.078 332.108 708.389 332.107Z" fill="#E35D6A"/>
<path d="M755.149 180.307H732.879C732.191 180.31 731.532 180.585 731.047 181.072C730.561 181.559 730.289 182.219 730.289 182.907V205.177C730.289 205.864 730.562 206.523 731.048 207.009C731.533 207.494 732.192 207.767 732.879 207.767H755.149C755.837 207.768 756.497 207.495 756.984 207.01C757.472 206.524 757.747 205.865 757.749 205.177V182.907C757.747 182.218 757.472 181.558 756.985 181.071C756.498 180.584 755.838 180.309 755.149 180.307Z" fill="#E35D6A"/>
<path d="M755.149 218.257H732.879C732.191 218.26 731.532 218.535 731.047 219.022C730.561 219.509 730.289 220.169 730.289 220.857V243.127C730.289 243.814 730.562 244.473 731.048 244.959C731.533 245.444 732.192 245.717 732.879 245.717H755.149C755.837 245.718 756.497 245.445 756.984 244.96C757.472 244.474 757.747 243.815 757.749 243.127V220.857C757.747 220.168 757.472 219.508 756.985 219.021C756.498 218.534 755.838 218.259 755.149 218.257Z" fill="#E35D6A"/>
<path d="M755.149 256.207H732.879C732.191 256.21 731.532 256.485 731.047 256.972C730.561 257.459 730.289 258.119 730.289 258.807V281.067C730.288 281.408 730.354 281.746 730.484 282.061C730.614 282.376 730.804 282.663 731.045 282.904C731.285 283.146 731.571 283.338 731.886 283.468C732.201 283.599 732.538 283.667 732.879 283.667H755.149C755.838 283.667 756.499 283.393 756.987 282.905C757.475 282.418 757.749 281.757 757.749 281.067V258.807C757.747 258.118 757.472 257.458 756.985 256.971C756.498 256.484 755.838 256.209 755.149 256.207Z" fill="#E6E6E6"/>
<path d="M755.149 294.157H732.879C732.191 294.16 731.532 294.435 731.047 294.922C730.561 295.409 730.289 296.069 730.289 296.757V319.017C730.288 319.358 730.354 319.696 730.484 320.011C730.614 320.326 730.804 320.613 731.045 320.854C731.285 321.096 731.571 321.288 731.886 321.418C732.201 321.549 732.538 321.617 732.879 321.617H755.149C755.838 321.617 756.5 321.343 756.987 320.855C757.475 320.368 757.749 319.707 757.749 319.017V296.757C757.747 296.068 757.472 295.408 756.985 294.921C756.498 294.434 755.838 294.159 755.149 294.157Z" fill="#E35D6A"/>
<path d="M755.149 332.107H732.879C732.538 332.108 732.201 332.175 731.886 332.306C731.571 332.437 731.285 332.629 731.045 332.87C730.804 333.112 730.614 333.398 730.484 333.714C730.354 334.029 730.288 334.367 730.289 334.707V356.967C730.288 357.308 730.354 357.646 730.484 357.961C730.614 358.276 730.804 358.563 731.045 358.805C731.285 359.046 731.571 359.238 731.886 359.369C732.201 359.5 732.538 359.567 732.879 359.568H755.149C755.838 359.567 756.5 359.293 756.987 358.806C757.475 358.318 757.749 357.657 757.749 356.967V334.707C757.749 334.018 757.475 333.357 756.987 332.869C756.5 332.382 755.838 332.108 755.149 332.107Z" fill="#E35D6A"/>
<path d="M801.909 180.307H779.639C778.951 180.31 778.292 180.585 777.807 181.072C777.321 181.559 777.049 182.219 777.049 182.907V205.177C777.049 205.864 777.322 206.523 777.808 207.009C778.293 207.494 778.952 207.767 779.639 207.767H801.909C802.597 207.768 803.257 207.495 803.744 207.01C804.231 206.524 804.507 205.865 804.509 205.177V182.907C804.507 182.218 804.232 181.558 803.745 181.071C803.258 180.584 802.598 180.309 801.909 180.307Z" fill="#E6E6E6"/>
<path d="M801.909 218.257H779.639C778.951 218.26 778.292 218.535 777.807 219.022C777.321 219.509 777.049 220.169 777.049 220.857V243.127C777.049 243.814 777.322 244.473 777.808 244.959C778.293 245.444 778.952 245.717 779.639 245.717H801.909C802.597 245.718 803.257 245.445 803.744 244.96C804.232 244.474 804.507 243.815 804.509 243.127V220.857C804.507 220.168 804.232 219.508 803.745 219.021C803.258 218.534 802.598 218.259 801.909 218.257Z" fill="#E35D6A"/>
<path d="M801.909 256.207H779.639C778.951 256.21 778.292 256.485 777.807 256.972C777.321 257.459 777.049 258.119 777.049 258.807V281.067C777.048 281.408 777.114 281.746 777.244 282.061C777.374 282.376 777.564 282.663 777.805 282.904C778.045 283.146 778.331 283.338 778.646 283.468C778.961 283.599 779.298 283.667 779.639 283.667H801.909C802.598 283.667 803.259 283.393 803.747 282.905C804.235 282.418 804.509 281.757 804.509 281.067V258.807C804.507 258.118 804.232 257.458 803.745 256.971C803.258 256.484 802.598 256.209 801.909 256.207Z" fill="#E35D6A"/>
<path d="M801.909 294.157H779.639C778.951 294.16 778.292 294.435 777.807 294.922C777.321 295.409 777.049 296.069 777.049 296.757V319.017C777.048 319.358 777.114 319.696 777.244 320.011C777.374 320.326 777.564 320.613 777.805 320.854C778.045 321.096 778.331 321.288 778.646 321.418C778.961 321.549 779.298 321.617 779.639 321.617H801.909C802.598 321.617 803.26 321.343 803.747 320.855C804.235 320.368 804.509 319.707 804.509 319.017V296.757C804.507 296.068 804.232 295.408 803.745 294.921C803.258 294.434 802.598 294.159 801.909 294.157Z" fill="#E35D6A"/>
<path d="M801.909 332.107H779.639C779.298 332.108 778.961 332.175 778.646 332.306C778.331 332.437 778.045 332.629 777.805 332.87C777.564 333.112 777.374 333.398 777.244 333.714C777.114 334.029 777.048 334.367 777.049 334.707V356.967C777.048 357.308 777.114 357.646 777.244 357.961C777.374 358.276 777.564 358.563 777.805 358.805C778.045 359.046 778.331 359.238 778.646 359.369C778.961 359.5 779.298 359.567 779.639 359.568H801.909C802.598 359.567 803.26 359.293 803.747 358.806C804.235 358.318 804.509 357.657 804.509 356.967V334.707C804.509 334.018 804.235 333.357 803.747 332.869C803.26 332.382 802.598 332.108 801.909 332.107Z" fill="#E6E6E6"/>
<path d="M848.669 180.307H826.399C825.711 180.31 825.052 180.585 824.567 181.072C824.081 181.559 823.809 182.219 823.809 182.907V205.177C823.809 205.864 824.082 206.523 824.568 207.009C825.053 207.494 825.712 207.767 826.399 207.767H848.669C849.357 207.768 850.017 207.495 850.504 207.01C850.992 206.524 851.267 205.865 851.269 205.177V182.907C851.267 182.218 850.992 181.558 850.505 181.071C850.018 180.584 849.358 180.309 848.669 180.307Z" fill="#E6E6E6"/>
<path d="M848.669 218.257H826.399C825.711 218.26 825.052 218.535 824.567 219.022C824.081 219.509 823.809 220.169 823.809 220.857V243.127C823.809 243.814 824.082 244.473 824.568 244.959C825.053 245.444 825.712 245.717 826.399 245.717H848.669C849.357 245.718 850.017 245.445 850.504 244.96C850.992 244.474 851.267 243.815 851.269 243.127V220.857C851.267 220.168 850.992 219.508 850.505 219.021C850.018 218.534 849.358 218.259 848.669 218.257Z" fill="#E6E6E6"/>
<path d="M848.669 256.207H826.399C825.711 256.21 825.052 256.485 824.567 256.972C824.081 257.459 823.809 258.119 823.809 258.807V281.067C823.808 281.408 823.874 281.746 824.004 282.061C824.134 282.376 824.324 282.663 824.565 282.904C824.805 283.146 825.091 283.338 825.406 283.468C825.721 283.599 826.058 283.667 826.399 283.667H848.669C849.358 283.667 850.02 283.393 850.507 282.905C850.995 282.418 851.269 281.757 851.269 281.067V258.807C851.267 258.118 850.992 257.458 850.505 256.971C850.018 256.484 849.358 256.209 848.669 256.207Z" fill="#E35D6A"/>
<path d="M848.669 294.157H826.399C825.711 294.16 825.052 294.435 824.567 294.922C824.081 295.409 823.809 296.069 823.809 296.757V319.017C823.808 319.358 823.874 319.696 824.004 320.011C824.134 320.326 824.324 320.613 824.565 320.854C824.805 321.096 825.091 321.288 825.406 321.418C825.721 321.549 826.058 321.617 826.399 321.617H848.669C849.358 321.617 850.02 321.343 850.507 320.855C850.995 320.368 851.269 319.707 851.269 319.017V296.757C851.267 296.068 850.992 295.408 850.505 294.921C850.018 294.434 849.358 294.159 848.669 294.157Z" fill="#E6E6E6"/>
<path d="M848.669 332.107H826.399C826.058 332.108 825.721 332.175 825.406 332.306C825.091 332.437 824.805 332.629 824.565 332.87C824.324 333.112 824.134 333.398 824.004 333.714C823.874 334.029 823.808 334.367 823.809 334.707V356.967C823.808 357.308 823.874 357.646 824.004 357.961C824.134 358.276 824.324 358.563 824.565 358.805C824.805 359.046 825.091 359.238 825.406 359.369C825.721 359.5 826.058 359.567 826.399 359.568H848.669C849.358 359.567 850.02 359.293 850.507 358.806C850.995 358.318 851.269 357.657 851.269 356.967V334.707C851.269 334.018 850.995 333.357 850.507 332.869C850.02 332.382 849.358 332.108 848.669 332.107Z" fill="#E6E6E6"/>
<path d="M336.826 660.309H336.206L336.736 660.239L336.826 660.309Z" fill="#2F2E41"/>
<path d="M283.545 245.312C321.278 245.312 351.867 214.724 351.867 176.991C351.867 139.257 321.278 108.669 283.545 108.669C245.812 108.669 215.224 139.257 215.224 176.991C215.224 214.724 245.812 245.312 283.545 245.312Z" fill="#FFB6B6"/>
<path d="M343.377 126.898C343.377 126.898 361.246 92.7374 321.933 89.6318C321.933 89.6318 288.418 59.2295 254.257 84.0738C254.257 84.0738 235.624 84.0738 225.435 105.159C225.435 105.159 210.78 99.6015 207.559 114.476C207.559 114.476 196.836 145.532 207.559 173.481C218.283 201.431 221.845 204.537 221.845 204.537C221.845 204.537 204.224 145.938 247.114 142.833C290.005 139.727 338.001 112.923 341.576 147.084C345.15 181.245 350.529 189.662 350.529 189.662C350.529 189.662 384.479 140.873 343.377 126.898Z" fill="#2F2E41"/>
<path d="M460.279 345.367L460.059 346.527L457.589 359.567L440.519 449.767L439.509 455.077L437.389 466.307L434.489 481.627L428.059 515.577L426.219 525.307L425.529 528.957L425.289 530.237L423.379 540.307L422.799 543.347L418.139 577.877L414.069 607.967L427.689 621.587L419.569 629.707L414.239 660.237L414.249 660.307H196.719C187.919 654.607 179.246 648.731 170.699 642.677L172.489 629.277C172.489 629.277 178.649 605.347 176.059 602.487C173.479 599.627 167.819 594.517 167.819 594.517L174.949 577.877L175.939 575.567L174.279 541.137L174.239 540.307L173.689 528.957L173.619 527.497L173.509 525.307L171.399 481.627L171.359 480.907L170.719 467.667L170.119 455.077L169.859 449.767L167.289 396.637L165.549 360.557L164.029 329.147L170.139 327.077L235.489 304.867L262.559 269.677L318.899 270.097L346.479 270.307L392.499 312.987L402.969 317.987L403.049 318.027L410.559 321.617L429.599 330.707L449.729 340.327L460.059 345.257L460.279 345.367Z" fill="#CACACA"/>
<path d="M269.84 557.809C265.711 559.408 261.282 560.083 256.865 559.786C252.447 559.488 248.148 558.226 244.271 556.087C240.394 553.949 237.034 550.986 234.425 547.408C231.817 543.83 230.025 539.724 229.176 535.379L122.617 520.261L159.66 478.359L255.171 499.139C262.565 498.196 270.049 499.998 276.204 504.204C282.358 508.409 286.757 514.727 288.565 521.958C290.373 529.19 289.465 536.834 286.014 543.442C282.563 550.049 276.808 555.161 269.84 557.809V557.809Z" fill="#FFB6B6"/>
<path d="M222.329 481.627C220.355 479.125 217.561 477.4 214.439 476.757L170.719 467.667L166.229 466.737C163.62 466.193 161.155 465.103 158.995 463.54C156.836 461.977 155.031 459.976 153.699 457.667C152.317 455.244 151.481 452.548 151.249 449.767C151.041 447.239 151.343 444.696 152.139 442.287L167.289 396.637L177.119 367.017C178.31 363.445 179.013 359.728 179.209 355.967C179.757 345.56 176.537 335.304 170.139 327.077C164.514 319.847 156.713 314.617 147.887 312.16C139.062 309.704 129.68 310.152 121.129 313.437C120.879 313.527 120.619 313.627 120.369 313.727C114.236 316.176 108.757 320.018 104.364 324.948C99.9717 329.879 96.786 335.764 95.0589 342.137L84.3789 380.987L62.3489 461.077C60.1436 469.102 59.6981 477.508 61.0428 485.72C62.3876 493.933 65.4908 501.758 70.1402 508.66C74.7896 515.561 80.8753 521.377 87.9808 525.709C95.0864 530.041 103.044 532.786 111.309 533.757L174.279 541.137L203.419 544.557C206.788 544.962 210.187 544.083 212.937 542.094C215.687 540.106 217.587 537.154 218.259 533.827C218.306 533.646 218.343 533.463 218.369 533.277L219.069 528.957L224.999 492.577L225.059 492.207C225.368 490.351 225.285 488.45 224.814 486.628C224.344 484.806 223.498 483.102 222.329 481.627Z" fill="#CACACA"/>
<path d="M337.713 558.975C342.026 559.976 346.506 560.02 350.838 559.102C355.169 558.185 359.247 556.329 362.784 553.665C366.32 551.001 369.23 547.594 371.307 543.684C373.385 539.774 374.58 535.456 374.808 531.035L478.17 501.041L435.588 464.781L343.962 498.823C336.509 498.932 329.354 501.771 323.854 506.803C318.353 511.834 314.89 518.709 314.12 526.123C313.35 533.538 315.326 540.978 319.674 547.032C324.023 553.087 330.441 557.336 337.713 558.975V558.975Z" fill="#FFB6B6"/>
<path d="M529.489 433.947L480.329 320.808C476.308 311.519 469.127 303.955 460.059 299.457C457.256 298.078 454.312 297.005 451.279 296.257C450.809 296.137 450.339 296.027 449.869 295.937C443.437 294.534 436.765 294.657 430.389 296.298C424.561 297.795 419.114 300.504 414.403 304.248C409.692 307.992 405.823 312.688 403.049 318.028C403.019 318.072 402.992 318.119 402.969 318.167C399.87 324.162 398.222 330.801 398.158 337.548C398.094 344.296 399.615 350.965 402.599 357.018L403.209 358.238L437.949 428.007C439.135 430.393 439.804 433.003 439.91 435.665C440.017 438.328 439.56 440.982 438.568 443.455C437.577 445.929 436.073 448.164 434.157 450.015C432.241 451.867 429.955 453.292 427.449 454.197L425.009 455.078L381.129 470.927C377.836 472.102 375.128 474.509 373.574 477.641C372.021 480.772 371.743 484.385 372.799 487.717L372.909 488.068L385.209 527.427C385.269 527.607 385.329 527.788 385.399 527.967C385.507 528.307 385.641 528.638 385.799 528.957C387.106 531.889 389.417 534.258 392.315 535.639C395.213 537.019 398.509 537.32 401.609 536.487L425.289 530.237L430.119 528.957L491.269 512.807C499.315 510.681 506.807 506.842 513.231 501.551C519.655 496.26 524.86 489.644 528.49 482.155C532.12 474.666 534.088 466.481 534.261 458.16C534.433 449.84 532.805 441.58 529.489 433.947L529.489 433.947Z" fill="#CACACA"/>
<path d="M45.629 528.957C59.7994 546.241 75.0818 562.582 91.379 577.877H543.349C547.703 577.884 551.878 579.618 554.956 582.698C558.034 585.778 559.765 589.953 559.769 594.307L560.419 708.837C588.224 696.063 614.262 679.751 637.889 660.307C644.449 654.917 650.806 649.294 656.959 643.437C660.989 639.617 664.922 635.704 668.759 631.697C697.523 601.732 720.815 566.96 737.579 528.957H45.629Z" fill="#3F3D56"/>
<path d="M668.759 631.697C664.929 635.707 660.996 639.621 656.959 643.437H560.749V631.697H668.759Z" fill="white"/>
<path d="M459.379 256.207C458.904 255.33 458.2 254.597 457.343 254.087C456.486 253.577 455.507 253.307 454.509 253.307H126.669C125.199 253.311 123.791 253.897 122.752 254.938C121.714 255.978 121.13 257.387 121.129 258.857V455.077H460.059V258.857C460.064 257.93 459.83 257.017 459.379 256.207Z" fill="#3F3D56"/>
<path d="M120.832 449.765V473.979C120.832 474.983 121.03 475.976 121.414 476.904C121.798 477.831 122.361 478.674 123.071 479.384C123.781 480.094 124.623 480.657 125.551 481.041C126.478 481.425 127.472 481.623 128.476 481.623H253.573V529.409H251.911C251.78 529.409 251.651 529.435 251.531 529.485C251.41 529.535 251.301 529.608 251.209 529.7C251.116 529.792 251.043 529.902 250.993 530.022C250.943 530.143 250.918 530.272 250.918 530.402V533.726C250.918 533.856 250.943 533.985 250.993 534.106C251.043 534.226 251.116 534.336 251.209 534.428C251.301 534.52 251.41 534.593 251.531 534.643C251.651 534.693 251.78 534.719 251.911 534.719H329.569C329.7 534.719 329.829 534.693 329.949 534.643C330.07 534.593 330.179 534.52 330.271 534.428C330.364 534.336 330.437 534.226 330.487 534.106C330.536 533.985 330.562 533.856 330.562 533.726V530.402C330.562 530.272 330.536 530.143 330.487 530.022C330.437 529.902 330.364 529.792 330.271 529.7C330.179 529.608 330.07 529.535 329.949 529.485C329.829 529.435 329.7 529.409 329.569 529.409H327.907V481.623H453.004C454.008 481.623 455.002 481.425 455.929 481.041C456.857 480.657 457.699 480.094 458.409 479.384C459.119 478.674 459.682 477.831 460.066 476.904C460.45 475.976 460.648 474.983 460.648 473.979V449.765H120.832Z" fill="#3F3D56"/>
<path d="M286.634 380.268C303.924 380.268 317.94 366.252 317.94 348.961C317.94 331.671 303.924 317.655 286.634 317.655C269.344 317.655 255.328 331.671 255.328 348.961C255.328 366.252 269.344 380.268 286.634 380.268Z" fill="#E35D6A"/>
<path d="M366.399 173.257H361.399C361.399 135.457 323.989 110.687 286.249 110.667C280.76 110.651 275.282 111.184 269.899 112.257C263.839 113.467 257.549 114.917 251.369 116.807C226.999 124.277 204.399 138.717 204.399 173.257C204.394 179.965 205.247 186.646 206.939 193.137L202.099 194.397C200.304 187.494 199.396 180.39 199.399 173.257C199.399 143.077 211.789 122.347 233.189 109.987C244.439 103.487 258.169 99.2975 273.899 97.2575C280.445 96.3866 287.062 96.1856 293.649 96.6575C337.049 99.7775 366.399 133.057 366.399 173.257Z" fill="#E35D6A"/>
<path d="M374.729 176.027L372.759 161.467C372.273 157.79 370.502 154.404 367.759 151.907C365.998 150.28 363.89 149.074 361.595 148.381C359.299 147.688 356.876 147.526 354.509 147.907L351.379 148.337C350.523 148.45 349.697 148.732 348.95 149.166C348.204 149.6 347.55 150.179 347.029 150.867C346.503 151.554 346.118 152.337 345.897 153.173C345.675 154.009 345.622 154.881 345.739 155.737L350.289 189.277C350.476 190.644 351.089 191.918 352.04 192.917C352.991 193.917 354.233 194.592 355.589 194.847C355.991 194.928 356.399 194.968 356.809 194.967C357.103 194.967 357.397 194.947 357.689 194.907L361.189 194.437C363.323 194.154 365.376 193.438 367.223 192.332C369.07 191.226 370.672 189.755 371.929 188.007C372.199 187.627 372.459 187.237 372.699 186.837C374.573 183.565 375.289 179.756 374.729 176.027Z" fill="#E35D6A"/>
<path d="M349.359 148.947C348.441 149.393 347.642 150.051 347.029 150.867C346.503 151.554 346.118 152.337 345.897 153.173C345.675 154.009 345.622 154.881 345.739 155.737L350.289 189.277C350.476 190.644 351.089 191.918 352.04 192.917C352.991 193.917 354.233 194.592 355.589 194.847L349.359 148.947Z" fill="white"/>
<path d="M374.729 176.027L372.759 161.467C372.273 157.79 370.502 154.404 367.759 151.907L372.289 185.277C372.357 185.813 372.495 186.337 372.699 186.837C374.573 183.565 375.288 179.756 374.729 176.027Z" fill="#3F3D56"/>
<path d="M359.159 186.518C360.528 186.332 361.215 183.076 360.696 179.246C360.176 175.415 358.646 172.46 357.277 172.645C355.909 172.831 355.221 176.087 355.741 179.918C356.261 183.749 357.791 186.704 359.159 186.518Z" fill="#3F3D56"/>
<path d="M356.159 168.518C357.528 168.332 358.215 165.076 357.696 161.246C357.176 157.415 355.646 154.46 354.277 154.645C352.909 154.831 352.221 158.087 352.741 161.918C353.261 165.749 354.791 168.704 356.159 168.518Z" fill="#3F3D56"/>
<path d="M375.159 175.518C376.528 175.332 377.215 172.076 376.696 168.246C376.176 164.415 374.646 161.46 373.277 161.645C371.909 161.831 371.221 165.087 371.741 168.918C372.261 172.749 373.791 175.704 375.159 175.518Z" fill="#3F3D56"/>
<path d="M286.249 110.667C280.76 110.651 275.282 111.184 269.899 112.257C263.839 113.467 257.549 114.917 251.369 116.807C241.719 116.337 234.619 113.837 233.189 109.987C244.439 103.487 258.169 99.2972 273.899 97.2572C280.445 96.3864 287.062 96.1854 293.649 96.6572C294.346 97.066 294.949 97.6177 295.418 98.2761C295.887 98.9345 296.211 99.6846 296.369 100.477C296.839 103.957 292.869 107.657 286.249 110.667Z" fill="#3F3D56"/>
<path d="M222.409 207.957L214.709 175.947C214.434 174.793 213.825 173.745 212.956 172.935C212.088 172.126 211 171.591 209.829 171.397C209.498 171.346 209.164 171.319 208.829 171.317C208.357 171.319 207.887 171.376 207.429 171.487L204.449 172.207C200.612 173.135 197.3 175.548 195.24 178.915C193.179 182.282 192.539 186.329 193.459 190.167L196.909 204.527C197.697 207.908 199.573 210.937 202.249 213.147C202.683 213.497 203.137 213.821 203.609 214.117C205.285 215.168 207.155 215.872 209.108 216.188C211.061 216.504 213.057 216.426 214.979 215.957L217.949 215.237C218.734 215.054 219.473 214.71 220.119 214.227C221.079 213.527 221.81 212.557 222.218 211.441C222.625 210.324 222.692 209.112 222.409 207.957Z" fill="#E35D6A"/>
<path d="M206.267 202.002C207.609 201.679 207.964 198.37 207.06 194.611C206.155 190.852 204.334 188.067 202.991 188.39C201.649 188.713 201.294 192.022 202.198 195.781C203.103 199.54 204.924 202.325 206.267 202.002Z" fill="#3F3D56"/>
<path d="M196.267 205.002C197.609 204.679 197.964 201.37 197.06 197.611C196.155 193.852 194.334 191.067 192.991 191.39C191.649 191.713 191.294 195.022 192.198 198.781C193.103 202.54 194.924 205.325 196.267 205.002Z" fill="#3F3D56"/>
<path d="M222.899 207.837L215.199 175.827C214.899 174.578 214.237 173.444 213.296 172.569C212.355 171.694 211.177 171.116 209.909 170.907L220.419 214.627C221.457 213.867 222.246 212.816 222.688 211.608C223.129 210.4 223.203 209.087 222.899 207.837Z" fill="white"/>
<path d="M195.199 183.827C194.987 182.937 194.588 182.102 194.029 181.377C192.947 184.181 192.748 187.248 193.459 190.167L196.909 204.527C197.697 207.908 199.573 210.937 202.249 213.147L195.199 183.827Z" fill="#3F3D56"/>
</g>
<defs>
<clipPath id="clip0_1216_453636">
<rect width="850.538" height="740.83" fill="white" transform="translate(0.730957 0.257812)"/>
</clipPath>
</defs>
</svg>
