<svg width="811" height="305" viewBox="0 0 811 305" fill="none" xmlns="http://www.w3.org/2000/svg">
<g clip-path="url(#clip0_1212_453863)">
<path d="M733.496 271.459C749.486 224.202 736.785 171.492 699.844 137.963C698.926 137.13 697.996 136.308 697.054 135.498C674.444 116.056 643.018 104.283 614.362 112.532C590.3 119.459 572.068 138.921 549.752 150.277C505.947 172.57 452.52 161.006 407.346 141.635C362.172 122.264 319.345 95.3592 270.937 86.8376C191.145 72.7912 105.556 115.93 66.1434 186.716C26.7309 257.502 38.5 303.5 38.5 303.5L720 303.5C720 303.5 719.332 313.321 733.496 271.459Z" fill="#E35D6A" fill-opacity="0.5"/>
<path d="M23.2718 268.601C26.1207 269.602 29.1795 269.853 32.1536 269.329C35.1276 268.805 37.9166 267.524 40.2519 265.61C46.1992 260.618 48.0642 252.396 49.581 244.781L54.0686 222.258L44.6734 228.727C37.9165 233.379 31.0079 238.181 26.33 244.919C21.652 251.658 19.6111 260.857 23.3686 268.148" fill="#E6E6E6"/>
<path d="M24.7225 297.438C23.54 288.823 22.3233 280.096 23.1548 271.389C23.8916 263.655 26.251 256.103 31.0544 249.908C33.604 246.627 36.7065 243.816 40.2222 241.601C41.1388 241.022 41.9826 242.475 41.0699 243.051C34.9865 246.895 30.2812 252.572 27.6323 259.263C24.7068 266.704 24.2371 274.815 24.741 282.719C25.0456 287.499 25.6928 292.248 26.3428 296.991C26.3942 297.205 26.3621 297.431 26.2532 297.623C26.1443 297.815 25.9666 297.958 25.756 298.024C25.5413 298.081 25.3124 298.052 25.119 297.942C24.9256 297.833 24.7834 297.651 24.7231 297.437L24.7225 297.438Z" fill="#F2F2F2"/>
<path d="M33.2341 283.614C34.4558 285.471 36.1352 286.983 38.1107 288.003C40.0861 289.023 42.291 289.517 44.5128 289.437C50.2238 289.166 54.9829 285.182 59.2668 281.398L71.9401 270.208L63.5528 269.807C57.521 269.518 51.3335 269.247 45.5884 271.109C39.8432 272.971 34.5449 277.446 33.4945 283.393" fill="#E6E6E6"/>
<path d="M21.3799 302.39C27.0729 292.317 33.6759 281.122 45.4752 277.544C48.7557 276.552 52.1955 276.197 55.6094 276.497C56.6856 276.59 56.4168 278.249 55.3429 278.156C49.6203 277.681 43.9087 279.192 39.1696 282.435C34.7146 285.667 30.9377 289.743 28.0533 294.431C26.2123 297.234 24.5635 300.156 22.9145 303.075C22.3877 304.007 20.8468 303.334 21.3799 302.39Z" fill="#F2F2F2"/>
<path d="M544.027 255.434C547.95 256.813 552.162 257.158 556.258 256.437C560.353 255.715 564.194 253.951 567.41 251.315C575.599 244.441 578.167 233.119 580.256 222.633L586.436 191.616L573.498 200.525C564.194 206.931 554.68 213.544 548.238 222.823C541.796 232.102 538.986 244.77 544.16 254.811" fill="#E6E6E6"/>
<path d="M546.024 295.144C544.396 283.281 542.721 271.263 543.866 259.273C544.88 248.623 548.129 238.224 554.744 229.693C558.255 225.175 562.527 221.303 567.369 218.253C568.631 217.456 569.793 219.456 568.536 220.25C560.159 225.544 553.679 233.361 550.032 242.575C546.003 252.821 545.356 263.991 546.05 274.876C546.469 281.458 547.361 287.997 548.256 294.528C548.327 294.824 548.282 295.135 548.132 295.399C547.982 295.663 547.738 295.86 547.448 295.951C547.152 296.03 546.837 295.99 546.571 295.839C546.304 295.688 546.108 295.438 546.025 295.143L546.024 295.144Z" fill="#F2F2F2"/>
<path d="M557.746 276.108C559.428 278.666 561.741 280.747 564.461 282.151C567.181 283.556 570.217 284.236 573.277 284.126C581.141 283.753 587.695 278.267 593.594 273.056L611.046 257.647L599.496 257.094C591.19 256.697 582.669 256.323 574.758 258.888C566.847 261.452 559.55 267.614 558.104 275.803" fill="#E6E6E6"/>
<path d="M541.421 301.964C549.261 288.093 558.354 272.676 574.602 267.748C579.12 266.383 583.857 265.894 588.558 266.307C590.04 266.435 589.67 268.719 588.191 268.592C580.31 267.938 572.445 270.018 565.919 274.484C559.639 278.759 554.749 284.702 550.611 291.003C548.076 294.864 545.806 298.888 543.535 302.906C542.809 304.191 540.687 303.263 541.421 301.964Z" fill="#F2F2F2"/>
<path d="M470.549 46.7141C469.722 46.354 469.057 45.7025 468.679 44.8836C468.302 44.0647 468.239 43.1356 468.502 42.2731C468.544 42.1409 468.571 42.0041 468.582 41.8656C468.606 41.4704 468.502 41.078 468.285 40.7464C468.069 40.4149 467.751 40.1619 467.38 40.0249C467.009 39.8879 466.603 39.8741 466.223 39.9857C465.843 40.0973 465.509 40.3282 465.271 40.6444C465.189 40.7565 465.121 40.878 465.067 41.0061C464.707 41.8329 464.056 42.4984 463.237 42.8759C462.418 43.2535 461.489 43.3167 460.626 43.0536C460.494 43.0111 460.357 42.9842 460.219 42.9737C459.823 42.9497 459.431 43.0536 459.1 43.27C458.768 43.4864 458.515 43.8038 458.378 44.1752C458.241 44.5466 458.227 44.9523 458.339 45.3322C458.45 45.712 458.681 46.0459 458.997 46.2842C459.11 46.3662 459.231 46.4346 459.359 46.4881C460.186 46.8481 460.851 47.4997 461.229 48.3186C461.607 49.1375 461.67 50.0666 461.407 50.9291C461.364 51.0613 461.337 51.1981 461.327 51.3366C461.303 51.7318 461.407 52.1242 461.623 52.4557C461.839 52.7873 462.157 53.0403 462.528 53.1773C462.9 53.3143 463.305 53.3281 463.685 53.2165C464.065 53.1049 464.399 52.8739 464.637 52.5578C464.719 52.4456 464.788 52.3242 464.841 52.196C465.201 51.3693 465.853 50.7038 466.672 50.3262C467.491 49.9487 468.42 49.8854 469.282 50.1485C469.414 50.1911 469.551 50.2179 469.69 50.2284C470.085 50.2525 470.477 50.1486 470.809 49.9322C471.14 49.7158 471.393 49.3984 471.53 49.027C471.667 48.6555 471.681 48.2498 471.57 47.87C471.458 47.4901 471.227 47.1563 470.911 46.9179C470.799 46.836 470.677 46.7676 470.549 46.7141Z" fill="#CBCBCB"/>
<path d="M540.549 209.714C539.722 209.354 539.057 208.703 538.679 207.884C538.302 207.065 538.239 206.136 538.502 205.273C538.544 205.141 538.571 205.004 538.582 204.866C538.606 204.47 538.502 204.078 538.285 203.746C538.069 203.415 537.751 203.162 537.38 203.025C537.009 202.888 536.603 202.874 536.223 202.986C535.843 203.097 535.509 203.328 535.271 203.644C535.189 203.757 535.121 203.878 535.067 204.006C534.707 204.833 534.056 205.498 533.237 205.876C532.418 206.253 531.489 206.317 530.626 206.054C530.494 206.011 530.357 205.984 530.219 205.974C529.823 205.95 529.431 206.054 529.1 206.27C528.768 206.486 528.515 206.804 528.378 207.175C528.241 207.547 528.227 207.952 528.339 208.332C528.45 208.712 528.681 209.046 528.997 209.284C529.11 209.366 529.231 209.435 529.359 209.488C530.186 209.848 530.851 210.5 531.229 211.319C531.607 212.137 531.67 213.067 531.407 213.929C531.364 214.061 531.337 214.198 531.327 214.337C531.303 214.732 531.407 215.124 531.623 215.456C531.839 215.787 532.157 216.04 532.528 216.177C532.9 216.314 533.305 216.328 533.685 216.216C534.065 216.105 534.399 215.874 534.637 215.558C534.719 215.446 534.788 215.324 534.841 215.196C535.201 214.369 535.853 213.704 536.672 213.326C537.491 212.949 538.42 212.885 539.282 213.149C539.414 213.191 539.551 213.218 539.69 213.228C540.085 213.252 540.477 213.149 540.809 212.932C541.14 212.716 541.393 212.398 541.53 212.027C541.667 211.656 541.681 211.25 541.57 210.87C541.458 210.49 541.227 210.156 540.911 209.918C540.799 209.836 540.677 209.768 540.549 209.714Z" fill="#F1F1F1"/>
<path d="M173.549 114.714C172.722 114.354 172.057 113.703 171.679 112.884C171.302 112.065 171.239 111.136 171.502 110.273C171.544 110.141 171.571 110.004 171.582 109.866C171.606 109.47 171.502 109.078 171.285 108.746C171.069 108.415 170.752 108.162 170.38 108.025C170.009 107.888 169.603 107.874 169.223 107.986C168.843 108.097 168.509 108.328 168.271 108.644C168.189 108.757 168.121 108.878 168.067 109.006C167.707 109.833 167.056 110.498 166.237 110.876C165.418 111.253 164.489 111.317 163.626 111.054C163.494 111.011 163.357 110.984 163.219 110.974C162.823 110.95 162.431 111.054 162.1 111.27C161.768 111.486 161.515 111.804 161.378 112.175C161.241 112.547 161.227 112.952 161.339 113.332C161.45 113.712 161.681 114.046 161.997 114.284C162.11 114.366 162.231 114.435 162.359 114.488C163.186 114.848 163.851 115.5 164.229 116.319C164.607 117.137 164.67 118.067 164.407 118.929C164.364 119.061 164.337 119.198 164.327 119.337C164.303 119.732 164.407 120.124 164.623 120.456C164.839 120.787 165.157 121.04 165.528 121.177C165.9 121.314 166.305 121.328 166.685 121.216C167.065 121.105 167.399 120.874 167.637 120.558C167.719 120.446 167.788 120.324 167.841 120.196C168.201 119.369 168.853 118.704 169.672 118.326C170.491 117.949 171.42 117.885 172.282 118.149C172.414 118.191 172.551 118.218 172.69 118.228C173.085 118.252 173.477 118.149 173.809 117.932C174.14 117.716 174.393 117.398 174.53 117.027C174.667 116.656 174.681 116.25 174.57 115.87C174.458 115.49 174.227 115.156 173.911 114.918C173.799 114.836 173.677 114.768 173.549 114.714Z" fill="#F1F1F1"/>
<path d="M326.654 56.2578C329.967 56.2578 332.654 53.5715 332.654 50.2578C332.654 46.9441 329.967 44.2578 326.654 44.2578C323.34 44.2578 320.654 46.9441 320.654 50.2578C320.654 53.5715 323.34 56.2578 326.654 56.2578Z" fill="#F1F1F1"/>
<path d="M646.654 40.2578C649.967 40.2578 652.654 37.5715 652.654 34.2578C652.654 30.9441 649.967 28.2578 646.654 28.2578C643.34 28.2578 640.654 30.9441 640.654 34.2578C640.654 37.5715 643.34 40.2578 646.654 40.2578Z" fill="#E35D6A"/>
<path d="M180.654 12.2578C183.967 12.2578 186.654 9.57152 186.654 6.25781C186.654 2.9441 183.967 0.257812 180.654 0.257812C177.34 0.257812 174.654 2.9441 174.654 6.25781C174.654 9.57152 177.34 12.2578 180.654 12.2578Z" fill="#CBCBCB"/>
<path d="M157.58 284.949C181.365 284.949 200.647 265.667 200.647 241.881C200.647 218.096 181.365 198.814 157.58 198.814C133.795 198.814 114.513 218.096 114.513 241.881C114.513 265.667 133.795 284.949 157.58 284.949Z" fill="#2F2E41"/>
<path d="M151.038 275.681H137.954V299.123H151.038V275.681Z" fill="#2F2E41"/>
<path d="M177.206 275.681H164.122V299.123H177.206V275.681Z" fill="#2F2E41"/>
<path d="M148.857 303.484C154.879 303.484 159.761 301.653 159.761 299.395C159.761 297.137 154.879 295.307 148.857 295.307C142.836 295.307 137.954 297.137 137.954 299.395C137.954 301.653 142.836 303.484 148.857 303.484Z" fill="#2F2E41"/>
<path d="M175.025 302.939C181.047 302.939 185.928 301.108 185.928 298.85C185.928 296.592 181.047 294.761 175.025 294.761C169.003 294.761 164.122 296.592 164.122 298.85C164.122 301.108 169.003 302.939 175.025 302.939Z" fill="#2F2E41"/>
<path d="M203.989 223.062C213.316 213.727 218.502 203.787 215.572 200.859C212.641 197.931 202.705 203.124 193.378 212.458C184.051 221.793 178.865 231.733 181.796 234.661C184.726 237.589 194.662 232.396 203.989 223.062Z" fill="#2F2E41"/>
<path d="M122.866 237.661C125.797 234.733 120.611 224.793 111.284 215.458C101.957 206.124 92.0206 200.931 89.0903 203.859C86.16 206.787 91.3456 216.728 100.673 226.062C110 235.396 119.936 240.589 122.866 237.661Z" fill="#2F2E41"/>
<path d="M155.768 250.497C163.897 250.497 170.487 243.907 170.487 235.778C170.487 227.649 163.897 221.059 155.768 221.059C147.639 221.059 141.049 227.649 141.049 235.778C141.049 243.907 147.639 250.497 155.768 250.497Z" fill="white"/>
<path d="M155.768 240.684C158.478 240.684 160.674 238.488 160.674 235.778C160.674 233.068 158.478 230.872 155.768 230.872C153.058 230.872 150.862 233.068 150.862 235.778C150.862 238.488 153.058 240.684 155.768 240.684Z" fill="#3F3D56"/>
<path d="M167.452 263.001C167.907 265.498 167.351 268.074 165.906 270.162C164.462 272.25 162.247 273.678 159.749 274.133C157.252 274.587 154.675 274.031 152.588 272.587C150.5 271.142 149.072 268.927 148.617 266.429L148.614 266.411C147.672 261.209 151.694 259.368 156.896 258.426C162.098 257.484 166.511 257.799 167.452 263.001Z" fill="white"/>
<path d="M199.81 287.081C198.841 287.082 197.911 287.468 197.226 288.153C196.54 288.839 196.155 289.768 196.154 290.738V298.375C196.155 299.344 196.54 300.274 197.226 300.959C197.911 301.645 198.841 302.03 199.81 302.031H258.64C259.609 302.03 260.539 301.645 261.224 300.959C261.91 300.274 262.295 299.344 262.296 298.375V290.738C262.295 289.768 261.91 288.839 261.224 288.153C260.539 287.468 259.609 287.082 258.64 287.081H199.81Z" fill="#E5E5E5"/>
<path d="M233.642 281.995C233.278 281.785 232.845 281.728 232.439 281.837C232.033 281.946 231.686 282.211 231.476 282.575L229.29 286.362L227.147 282.128C226.958 281.753 226.626 281.468 226.227 281.337C225.827 281.206 225.392 281.239 225.017 281.429C224.642 281.619 224.357 281.95 224.226 282.35C224.095 282.749 224.128 283.184 224.318 283.56L225.985 286.855H225.374V302.258H233.529V286.855H232.667L234.222 284.161C234.433 283.797 234.49 283.364 234.381 282.958C234.272 282.552 234.006 282.205 233.642 281.995Z" fill="#E35D6A"/>
<path d="M156.471 213.633C148.819 213.625 141.211 212.463 133.906 210.186C133.398 210.022 132.956 209.702 132.641 209.271C132.326 208.84 132.156 208.321 132.154 207.788V190.258C132.155 189.595 132.418 188.96 132.887 188.491C133.356 188.022 133.991 187.759 134.654 187.758H178.654C179.317 187.759 179.952 188.022 180.421 188.491C180.889 188.96 181.153 189.595 181.154 190.258V207.778C181.154 208.316 180.981 208.839 180.661 209.271C180.341 209.704 179.89 210.021 179.375 210.177C171.951 212.446 164.234 213.61 156.471 213.633Z" fill="#E35D6A"/>
<path opacity="0.2" d="M180.654 190.258V193.188L156.844 201.538C156.399 201.691 155.914 201.684 155.474 201.518L132.654 192.948V190.258C132.655 189.728 132.867 189.22 133.241 188.845C133.616 188.471 134.124 188.259 134.654 188.258H178.654C179.184 188.259 179.692 188.471 180.066 188.845C180.441 189.22 180.652 189.728 180.654 190.258Z" fill="black"/>
<path d="M156.177 198.149C155.877 198.15 155.58 198.096 155.299 197.991L121.198 185.186C120.716 185.005 120.301 184.679 120.011 184.254C119.721 183.828 119.569 183.324 119.577 182.809C119.584 182.294 119.751 181.794 120.054 181.377C120.356 180.96 120.78 180.647 121.267 180.48L153.353 169.503C153.871 169.328 154.433 169.325 154.952 169.497L190.762 181.434C191.257 181.599 191.688 181.914 191.994 182.336C192.301 182.758 192.468 183.265 192.472 183.786C192.476 184.308 192.317 184.817 192.017 185.244C191.717 185.67 191.291 185.992 190.799 186.165L157.004 198.009C156.738 198.102 156.459 198.15 156.177 198.149Z" fill="#E35D6A"/>
<path d="M125.154 197.258H124.154V182.758H154.654V183.758H125.154V197.258Z" fill="#3F3D56"/>
<path d="M124.654 200.258C125.758 200.258 126.654 199.362 126.654 198.258C126.654 197.153 125.758 196.258 124.654 196.258C123.549 196.258 122.654 197.153 122.654 198.258C122.654 199.362 123.549 200.258 124.654 200.258Z" fill="#3F3D56"/>
<path d="M406.58 284.949C430.365 284.949 449.647 265.667 449.647 241.881C449.647 218.096 430.365 198.814 406.58 198.814C382.795 198.814 363.513 218.096 363.513 241.881C363.513 265.667 382.795 284.949 406.58 284.949Z" fill="#2F2E41"/>
<path d="M400.038 275.681H386.954V299.123H400.038V275.681Z" fill="#2F2E41"/>
<path d="M426.206 275.681H413.122V299.123H426.206V275.681Z" fill="#2F2E41"/>
<path d="M397.857 303.484C403.879 303.484 408.761 301.653 408.761 299.395C408.761 297.137 403.879 295.307 397.857 295.307C391.836 295.307 386.954 297.137 386.954 299.395C386.954 301.653 391.836 303.484 397.857 303.484Z" fill="#2F2E41"/>
<path d="M424.025 302.939C430.047 302.939 434.928 301.108 434.928 298.85C434.928 296.592 430.047 294.761 424.025 294.761C418.003 294.761 413.122 296.592 413.122 298.85C413.122 301.108 418.003 302.939 424.025 302.939Z" fill="#2F2E41"/>
<path d="M452.989 223.062C462.316 213.727 467.502 203.787 464.572 200.859C461.641 197.931 451.705 203.124 442.378 212.458C433.051 221.793 427.865 231.733 430.796 234.661C433.726 237.589 443.662 232.396 452.989 223.062Z" fill="#2F2E41"/>
<path d="M368.139 263.038C375.665 252.199 379.008 241.497 375.605 239.135C372.203 236.772 363.343 243.643 355.817 254.482C348.291 265.321 344.949 276.023 348.351 278.385C351.754 280.748 360.613 273.877 368.139 263.038Z" fill="#2F2E41"/>
<path d="M404.768 250.497C412.897 250.497 419.487 243.907 419.487 235.778C419.487 227.649 412.897 221.059 404.768 221.059C396.639 221.059 390.049 227.649 390.049 235.778C390.049 243.907 396.639 250.497 404.768 250.497Z" fill="white"/>
<path d="M409.768 235.684C412.478 235.684 414.674 233.488 414.674 230.778C414.674 228.068 412.478 225.872 409.768 225.872C407.058 225.872 404.862 228.068 404.862 230.778C404.862 233.488 407.058 235.684 409.768 235.684Z" fill="#3F3D56"/>
<path d="M422.415 263.001C423.859 268.202 418.6 273.186 410.668 274.133C402.736 275.08 395.135 271.631 393.691 266.429L393.686 266.411C392.25 261.209 398.384 259.368 406.317 258.426C414.25 257.484 420.979 257.799 422.415 263.001Z" fill="white"/>
<path d="M391.511 216.534C384.408 219.382 376.917 221.141 369.289 221.754C368.757 221.791 368.227 221.66 367.774 221.378C367.321 221.095 366.97 220.677 366.769 220.183L360.229 203.919C359.982 203.303 359.99 202.616 360.25 202.006C360.51 201.396 361.001 200.915 361.616 200.667L402.439 184.252C403.054 184.005 403.742 184.013 404.352 184.273C404.962 184.533 405.443 185.024 405.691 185.638L412.228 201.894C412.428 202.393 412.464 202.943 412.327 203.463C412.191 203.984 411.892 204.447 411.472 204.783C405.43 209.658 398.705 213.617 391.511 216.534Z" fill="#E35D6A"/>
<path opacity="0.2" d="M405.227 185.825L406.321 188.544L387.345 205.173C386.989 205.482 386.537 205.656 386.066 205.666L361.696 206.228L360.693 203.732C360.497 203.24 360.503 202.69 360.711 202.203C360.919 201.715 361.311 201.33 361.802 201.131L402.626 184.716C403.118 184.519 403.668 184.526 404.155 184.734C404.643 184.942 405.028 185.334 405.227 185.825Z" fill="black"/>
<path d="M385.462 202.278C385.184 202.39 384.888 202.452 384.588 202.459L348.172 203.3C347.657 203.312 347.151 203.165 346.723 202.878C346.295 202.592 345.966 202.18 345.781 201.699C345.596 201.219 345.564 200.693 345.689 200.193C345.814 199.693 346.091 199.245 346.481 198.908L372.155 176.754C372.57 176.398 373.09 176.186 373.636 176.151L411.314 173.867C411.835 173.835 412.352 173.967 412.794 174.244C413.236 174.521 413.58 174.929 413.778 175.412C413.976 175.894 414.019 176.426 413.899 176.934C413.78 177.441 413.505 177.899 413.113 178.243L386.177 201.84C385.965 202.025 385.724 202.173 385.462 202.278Z" fill="#E35D6A"/>
<path d="M356.346 213.025L355.418 213.398L350.009 199.945L378.307 188.566L378.68 189.494L351.309 200.5L356.346 213.025Z" fill="#3F3D56"/>
<path d="M356.255 216.139C357.36 216.139 358.255 215.244 358.255 214.139C358.255 213.035 357.36 212.139 356.255 212.139C355.15 212.139 354.255 213.035 354.255 214.139C354.255 215.244 355.15 216.139 356.255 216.139Z" fill="#3F3D56"/>
<path d="M570.537 140.127C564.046 136.076 558.202 131.068 553.204 125.274C552.86 124.867 552.653 124.361 552.613 123.829C552.574 123.297 552.703 122.766 552.984 122.313L562.249 107.431C562.6 106.869 563.16 106.469 563.805 106.318C564.451 106.168 565.13 106.28 565.693 106.63L603.045 129.886C603.607 130.237 604.007 130.797 604.157 131.442C604.307 132.088 604.195 132.767 603.846 133.33L594.586 148.202C594.301 148.659 593.878 149.012 593.378 149.21C592.877 149.407 592.327 149.439 591.807 149.299C584.306 147.301 577.14 144.21 570.537 140.127Z" fill="#E35D6A"/>
<path opacity="0.2" d="M603.421 133.065L601.872 135.552L577.247 130.056C576.788 129.951 576.38 129.689 576.094 129.315L561.252 109.979L562.674 107.695C562.955 107.246 563.403 106.927 563.919 106.807C564.435 106.686 564.978 106.776 565.429 107.054L602.78 130.31C603.229 130.592 603.549 131.039 603.669 131.556C603.789 132.072 603.7 132.615 603.421 133.065Z" fill="black"/>
<path d="M578.472 126.828C578.217 126.669 577.993 126.466 577.81 126.229L555.629 97.3347C555.316 96.9261 555.136 96.4307 555.115 95.9161C555.093 95.4015 555.231 94.8929 555.51 94.4597C555.789 94.0266 556.194 93.6901 556.671 93.4962C557.148 93.3023 557.674 93.2605 558.176 93.3765L591.215 101.017C591.748 101.142 592.225 101.437 592.576 101.857L616.666 130.917C616.999 131.319 617.198 131.814 617.235 132.334C617.273 132.854 617.146 133.373 616.874 133.818C616.602 134.262 616.197 134.611 615.717 134.814C615.237 135.018 614.706 135.066 614.197 134.953L579.248 127.146C578.973 127.084 578.711 126.977 578.472 126.828Z" fill="#E35D6A"/>
<path d="M552.607 109.674L551.758 109.145L559.422 96.8358L585.314 112.957L584.785 113.805L559.742 98.2128L552.607 109.674Z" fill="#3F3D56"/>
<path d="M551.654 112.258C552.759 112.258 553.654 111.363 553.654 110.258C553.654 109.153 552.759 108.258 551.654 108.258C550.549 108.258 549.654 109.153 549.654 110.258C549.654 111.363 550.549 112.258 551.654 112.258Z" fill="#3F3D56"/>
<path d="M674.728 235.949C698.513 235.949 717.795 216.667 717.795 192.881C717.795 169.096 698.513 149.814 674.728 149.814C650.942 149.814 631.66 169.096 631.66 192.881C631.66 216.667 650.942 235.949 674.728 235.949Z" fill="#2F2E41"/>
<path d="M704.584 215.212L693.42 222.035L705.645 242.037L716.809 235.214L704.584 215.212Z" fill="#2F2E41"/>
<path d="M682.256 228.858L671.092 235.681L683.317 255.683L694.481 248.86L682.256 228.858Z" fill="#2F2E41"/>
<path d="M709.78 244.621C714.918 241.481 718.128 237.373 716.951 235.447C715.773 233.52 710.653 234.504 705.515 237.644C700.377 240.784 697.167 244.891 698.344 246.818C699.522 248.745 704.641 247.761 709.78 244.621Z" fill="#2F2E41"/>
<path d="M687.167 257.802C692.305 254.662 695.516 250.554 694.339 248.627C693.161 246.7 688.041 247.684 682.903 250.824C677.765 253.964 674.554 258.072 675.732 259.999C676.909 261.925 682.029 260.942 687.167 257.802Z" fill="#2F2E41"/>
<path d="M650.512 185.661C653.442 182.733 648.257 172.793 638.93 163.459C629.603 154.124 619.666 148.931 616.736 151.859C613.806 154.787 618.991 164.728 628.318 174.062C637.645 183.396 647.582 188.589 650.512 185.661Z" fill="#2F2E41"/>
<path d="M732.956 229.385C736.359 227.023 733.016 216.321 725.49 205.482C717.964 194.643 709.105 187.772 705.702 190.135C702.3 192.497 705.642 203.199 713.168 214.038C720.694 224.877 729.554 231.748 732.956 229.385Z" fill="#2F2E41"/>
<path d="M661.54 195.497C669.669 195.497 676.259 188.907 676.259 180.778C676.259 172.649 669.669 166.059 661.54 166.059C653.41 166.059 646.82 172.649 646.82 180.778C646.82 188.907 653.41 195.497 661.54 195.497Z" fill="white"/>
<path d="M656.54 180.684C659.249 180.684 661.446 178.488 661.446 175.778C661.446 173.068 659.249 170.872 656.54 170.872C653.83 170.872 651.633 173.068 651.633 175.778C651.633 178.488 653.83 180.684 656.54 180.684Z" fill="#3F3D56"/>
<path d="M642.585 205.331C639.794 209.904 643.513 216.091 650.892 219.149C658.27 222.208 666.514 220.98 669.305 216.407L669.315 216.391C672.099 211.815 666.692 208.391 659.311 205.337C651.93 202.283 645.369 200.755 642.585 205.331Z" fill="white"/>
<path d="M660.277 138.805C664.122 123.318 681.097 114.204 698.192 118.449C715.286 122.693 726.026 138.689 722.18 154.176C718.335 169.663 705.576 169.713 688.482 165.468C671.388 161.224 656.431 154.292 660.277 138.805Z" fill="#E6E6E6"/>
<path d="M810 304.258H1C0.734784 304.258 0.480429 304.152 0.292892 303.965C0.105356 303.777 0 303.523 0 303.258C0 302.993 0.105356 302.738 0.292892 302.551C0.480429 302.363 0.734784 302.258 1 302.258H810C810.265 302.258 810.52 302.363 810.707 302.551C810.895 302.738 811 302.993 811 303.258C811 303.523 810.895 303.777 810.707 303.965C810.52 304.152 810.265 304.258 810 304.258Z" fill="#CBCBCB"/>
</g>
<defs>
<clipPath id="clip0_1212_453863">
<rect width="811" height="304" fill="white" transform="translate(0 0.257812)"/>
</clipPath>
</defs>
</svg>
