<svg width="787" height="573" viewBox="0 0 787 573" fill="none" xmlns="http://www.w3.org/2000/svg">
<g clip-path="url(#clip0_1209_453622)">
<path d="M458.2 100.88C472.946 100.88 484.9 88.926 484.9 74.18C484.9 59.434 472.946 47.48 458.2 47.48C443.454 47.48 431.5 59.434 431.5 74.18C431.5 88.926 443.454 100.88 458.2 100.88Z" fill="#F2F2F2"/>
<path d="M665.541 497.149C705.228 466.92 724.184 416.123 712.317 367.666C712.022 366.462 711.711 365.261 711.383 364.063C703.516 335.299 684.052 307.962 655.683 298.771C631.864 291.054 605.864 296.989 581.014 293.92C532.233 287.896 494.413 248.426 467.803 207.101C441.192 165.775 420.741 119.517 385.381 85.3765C327.096 29.1011 232.019 16.985 159.755 53.616C87.4899 90.2472 41.458 171.516 43.4211 252.511C45.3843 333.506 93.4674 410.943 163.296 452.028C188.948 467.121 218.617 477.814 248.144 474.072C273.764 470.826 297.043 457.059 322.543 452.973C362.634 446.547 402.47 464.673 437.146 485.796C471.821 506.919 505.316 531.956 544.72 541.749C582.982 551.257 630.384 523.927 665.541 497.149Z" fill="#E35D6A" fill-opacity="0.5"/>
<path d="M608.52 55.315C607.65 54.735 606.77 54.185 605.9 53.625C580.751 37.5408 553.795 24.4741 525.59 14.695L519.05 104.915H477.59V1.52499C474.98 0.984994 472.35 0.474995 469.72 -0.00500488V104.915H420.45C393.326 104.915 367.314 94.1402 348.134 74.9608C328.955 55.7815 318.18 29.7688 318.18 2.64511V2.64502C315.54 3.21502 312.92 3.82502 310.3 4.47502V104.915H270.17L263.94 18.885C234.955 30.0013 207.437 44.6198 182 62.415C181.56 62.715 181.12 63.025 180.69 63.325C178.48 64.875 176.3 66.455 174.13 68.055V412.245H292.4L290.31 383.295L278.81 224.345H510.4L498.9 383.295L496.81 412.245H613.77V58.795C612.03 57.615 610.28 56.455 608.52 55.315ZM310.3 198.095H276.91L270.74 112.795H310.3V198.095ZM469.72 198.095H413.64V196.405C413.64 195.593 413.48 194.788 413.169 194.038C412.858 193.287 412.401 192.605 411.827 192.031C411.252 191.457 410.569 191.002 409.818 190.692C409.067 190.383 408.262 190.224 407.45 190.225H383.07C382.258 190.225 381.455 190.384 380.705 190.695C379.955 191.005 379.273 191.46 378.699 192.034C378.126 192.608 377.67 193.29 377.36 194.04C377.049 194.79 376.89 195.593 376.89 196.405V198.095H318.18V112.795H469.72V198.095ZM477.59 198.095V112.795H518.48L512.31 198.095H477.59Z" fill="#3F3D56"/>
<path d="M0.0899658 434.291C8.77722 444.584 18.1735 454.258 28.21 463.241L758.79 464.241C768.826 455.258 778.223 445.584 786.91 435.291L0.0899658 434.291Z" fill="#3F3D56"/>
<path d="M495.52 341.591V427.295C495.521 428.387 495.955 429.435 496.727 430.207C497.5 430.979 498.547 431.414 499.639 431.414H626.644C627.736 431.414 628.783 430.979 629.555 430.207C630.328 429.435 630.762 428.387 630.763 427.295V341.591C630.76 340.5 630.325 339.454 629.553 338.683C628.781 337.912 627.735 337.478 626.644 337.477H499.639C498.548 337.478 497.502 337.912 496.73 338.683C495.958 339.454 495.523 340.5 495.52 341.591Z" fill="#3F3D56"/>
<path d="M498.499 342.658V426.238C498.5 426.822 498.733 427.381 499.145 427.794C499.558 428.206 500.117 428.438 500.701 428.439H625.586C626.17 428.438 626.729 428.206 627.142 427.794C627.554 427.381 627.787 426.822 627.788 426.238V342.658C627.788 342.073 627.556 341.513 627.143 341.099C626.73 340.686 626.17 340.453 625.586 340.452H500.701C500.117 340.453 499.557 340.686 499.144 341.099C498.731 341.513 498.499 342.073 498.499 342.658Z" fill="#E35D6A"/>
<path d="M492.864 444.01C493.096 444.302 493.392 444.537 493.729 444.698C494.065 444.859 494.434 444.942 494.807 444.94H630.799C631.171 444.939 631.538 444.856 631.874 444.696C632.209 444.536 632.505 444.303 632.739 444.014C632.974 443.725 633.141 443.387 633.228 443.026C633.316 442.664 633.321 442.288 633.245 441.924L631.134 431.897C631.047 431.488 630.858 431.107 630.586 430.79C630.314 430.472 629.967 430.228 629.576 430.079C629.293 429.968 628.992 429.911 628.688 429.912H496.91C496.606 429.911 496.305 429.968 496.022 430.079C495.631 430.228 495.284 430.472 495.012 430.79C494.74 431.107 494.551 431.488 494.464 431.897L492.353 441.924C492.278 442.288 492.284 442.664 492.373 443.025C492.461 443.385 492.629 443.722 492.864 444.01Z" fill="#2F2E41"/>
<path d="M624.022 434.23H627.234C627.504 434.23 627.722 434.012 627.722 433.742V432.205C627.722 431.936 627.504 431.717 627.234 431.717H624.022C623.752 431.717 623.534 431.936 623.534 432.205V433.742C623.534 434.012 623.752 434.23 624.022 434.23Z" fill="#3F3D56"/>
<path d="M615.645 434.23H618.857C619.127 434.23 619.345 434.012 619.345 433.742V432.205C619.345 431.936 619.127 431.717 618.857 431.717H615.645C615.375 431.717 615.157 431.936 615.157 432.205V433.742C615.157 434.012 615.375 434.23 615.645 434.23Z" fill="#3F3D56"/>
<path d="M607.268 434.23H610.48C610.75 434.23 610.968 434.012 610.968 433.742V432.205C610.968 431.936 610.75 431.717 610.48 431.717H607.268C606.998 431.717 606.78 431.936 606.78 432.205V433.742C606.78 434.012 606.998 434.23 607.268 434.23Z" fill="#3F3D56"/>
<path d="M598.891 434.23H602.103C602.373 434.23 602.591 434.012 602.591 433.742V432.205C602.591 431.936 602.373 431.717 602.103 431.717H598.891C598.621 431.717 598.403 431.936 598.403 432.205V433.742C598.403 434.012 598.621 434.23 598.891 434.23Z" fill="#3F3D56"/>
<path d="M590.514 434.23H593.726C593.996 434.23 594.214 434.012 594.214 433.742V432.205C594.214 431.936 593.996 431.717 593.726 431.717H590.514C590.244 431.717 590.026 431.936 590.026 432.205V433.742C590.026 434.012 590.244 434.23 590.514 434.23Z" fill="#3F3D56"/>
<path d="M582.137 434.23H585.349C585.619 434.23 585.837 434.012 585.837 433.742V432.205C585.837 431.936 585.619 431.717 585.349 431.717H582.137C581.867 431.717 581.649 431.936 581.649 432.205V433.742C581.649 434.012 581.867 434.23 582.137 434.23Z" fill="#3F3D56"/>
<path d="M573.76 434.23H576.972C577.242 434.23 577.46 434.012 577.46 433.742V432.205C577.46 431.936 577.242 431.717 576.972 431.717H573.76C573.491 431.717 573.272 431.936 573.272 432.205V433.742C573.272 434.012 573.491 434.23 573.76 434.23Z" fill="#3F3D56"/>
<path d="M565.383 434.23H568.595C568.865 434.23 569.083 434.012 569.083 433.742V432.205C569.083 431.936 568.865 431.717 568.595 431.717H565.383C565.114 431.717 564.895 431.936 564.895 432.205V433.742C564.895 434.012 565.114 434.23 565.383 434.23Z" fill="#3F3D56"/>
<path d="M557.006 434.23H560.218C560.488 434.23 560.706 434.012 560.706 433.742V432.205C560.706 431.936 560.488 431.717 560.218 431.717H557.006C556.737 431.717 556.518 431.936 556.518 432.205V433.742C556.518 434.012 556.737 434.23 557.006 434.23Z" fill="#3F3D56"/>
<path d="M548.629 434.23H551.841C552.111 434.23 552.329 434.012 552.329 433.742V432.205C552.329 431.936 552.111 431.717 551.841 431.717H548.629C548.36 431.717 548.141 431.936 548.141 432.205V433.742C548.141 434.012 548.36 434.23 548.629 434.23Z" fill="#3F3D56"/>
<path d="M540.252 434.23H543.464C543.734 434.23 543.952 434.012 543.952 433.742V432.205C543.952 431.936 543.734 431.717 543.464 431.717H540.252C539.982 431.717 539.764 431.936 539.764 432.205V433.742C539.764 434.012 539.982 434.23 540.252 434.23Z" fill="#3F3D56"/>
<path d="M531.875 434.23H535.087C535.357 434.23 535.575 434.012 535.575 433.742V432.205C535.575 431.936 535.357 431.717 535.087 431.717H531.875C531.606 431.717 531.387 431.936 531.387 432.205V433.742C531.387 434.012 531.606 434.23 531.875 434.23Z" fill="#3F3D56"/>
<path d="M523.498 434.23H526.71C526.98 434.23 527.198 434.012 527.198 433.742V432.205C527.198 431.936 526.98 431.717 526.71 431.717H523.498C523.229 431.717 523.01 431.936 523.01 432.205V433.742C523.01 434.012 523.229 434.23 523.498 434.23Z" fill="#3F3D56"/>
<path d="M515.121 434.23H518.333C518.603 434.23 518.822 434.012 518.822 433.742V432.205C518.822 431.936 518.603 431.717 518.333 431.717H515.121C514.852 431.717 514.633 431.936 514.633 432.205V433.742C514.633 434.012 514.852 434.23 515.121 434.23Z" fill="#3F3D56"/>
<path d="M506.744 434.23H509.956C510.226 434.23 510.445 434.012 510.445 433.742V432.205C510.445 431.936 510.226 431.717 509.956 431.717H506.744C506.475 431.717 506.256 431.936 506.256 432.205V433.742C506.256 434.012 506.475 434.23 506.744 434.23Z" fill="#3F3D56"/>
<path d="M498.367 434.23H501.579C501.849 434.23 502.068 434.012 502.068 433.742V432.205C502.068 431.936 501.849 431.717 501.579 431.717H498.367C498.098 431.717 497.879 431.936 497.879 432.205V433.742C497.879 434.012 498.098 434.23 498.367 434.23Z" fill="#3F3D56"/>
<path d="M624.121 438.419H627.333C627.603 438.419 627.821 438.2 627.821 437.931V436.394C627.821 436.124 627.603 435.906 627.333 435.906H624.121C623.851 435.906 623.633 436.124 623.633 436.394V437.931C623.633 438.2 623.851 438.419 624.121 438.419Z" fill="#3F3D56"/>
<path d="M615.744 438.419H618.956C619.226 438.419 619.444 438.2 619.444 437.931V436.394C619.444 436.124 619.226 435.906 618.956 435.906H615.744C615.474 435.906 615.256 436.124 615.256 436.394V437.931C615.256 438.2 615.474 438.419 615.744 438.419Z" fill="#3F3D56"/>
<path d="M607.367 438.419H610.579C610.849 438.419 611.067 438.2 611.067 437.931V436.394C611.067 436.124 610.849 435.906 610.579 435.906H607.367C607.097 435.906 606.879 436.124 606.879 436.394V437.931C606.879 438.2 607.097 438.419 607.367 438.419Z" fill="#3F3D56"/>
<path d="M598.99 438.419H602.202C602.472 438.419 602.69 438.2 602.69 437.931V436.394C602.69 436.124 602.472 435.906 602.202 435.906H598.99C598.72 435.906 598.502 436.124 598.502 436.394V437.931C598.502 438.2 598.72 438.419 598.99 438.419Z" fill="#3F3D56"/>
<path d="M590.613 438.419H593.825C594.095 438.419 594.313 438.2 594.313 437.931V436.394C594.313 436.124 594.095 435.906 593.825 435.906H590.613C590.343 435.906 590.125 436.124 590.125 436.394V437.931C590.125 438.2 590.343 438.419 590.613 438.419Z" fill="#3F3D56"/>
<path d="M582.236 438.419H585.448C585.718 438.419 585.936 438.2 585.936 437.931V436.394C585.936 436.124 585.718 435.906 585.448 435.906H582.236C581.966 435.906 581.748 436.124 581.748 436.394V437.931C581.748 438.2 581.966 438.419 582.236 438.419Z" fill="#3F3D56"/>
<path d="M573.859 438.419H577.071C577.341 438.419 577.559 438.2 577.559 437.931V436.394C577.559 436.124 577.341 435.906 577.071 435.906H573.859C573.589 435.906 573.371 436.124 573.371 436.394V437.931C573.371 438.2 573.589 438.419 573.859 438.419Z" fill="#3F3D56"/>
<path d="M565.482 438.419H568.694C568.964 438.419 569.182 438.2 569.182 437.931V436.394C569.182 436.124 568.964 435.906 568.694 435.906H565.482C565.212 435.906 564.994 436.124 564.994 436.394V437.931C564.994 438.2 565.212 438.419 565.482 438.419Z" fill="#3F3D56"/>
<path d="M557.105 438.419H560.317C560.587 438.419 560.805 438.2 560.805 437.931V436.394C560.805 436.124 560.587 435.906 560.317 435.906H557.105C556.836 435.906 556.617 436.124 556.617 436.394V437.931C556.617 438.2 556.836 438.419 557.105 438.419Z" fill="#3F3D56"/>
<path d="M548.728 438.419H551.94C552.21 438.419 552.428 438.2 552.428 437.931V436.394C552.428 436.124 552.21 435.906 551.94 435.906H548.728C548.459 435.906 548.24 436.124 548.24 436.394V437.931C548.24 438.2 548.459 438.419 548.728 438.419Z" fill="#3F3D56"/>
<path d="M540.351 438.419H543.563C543.833 438.419 544.051 438.2 544.051 437.931V436.394C544.051 436.124 543.833 435.906 543.563 435.906H540.351C540.082 435.906 539.863 436.124 539.863 436.394V437.931C539.863 438.2 540.082 438.419 540.351 438.419Z" fill="#3F3D56"/>
<path d="M531.974 438.419H535.186C535.456 438.419 535.675 438.2 535.675 437.931V436.394C535.675 436.124 535.456 435.906 535.186 435.906H531.974C531.705 435.906 531.486 436.124 531.486 436.394V437.931C531.486 438.2 531.705 438.419 531.974 438.419Z" fill="#3F3D56"/>
<path d="M523.597 438.419H526.809C527.079 438.419 527.297 438.2 527.297 437.931V436.394C527.297 436.124 527.079 435.906 526.809 435.906H523.597C523.328 435.906 523.109 436.124 523.109 436.394V437.931C523.109 438.2 523.328 438.419 523.597 438.419Z" fill="#3F3D56"/>
<path d="M515.22 438.419H518.432C518.702 438.419 518.921 438.2 518.921 437.931V436.394C518.921 436.124 518.702 435.906 518.432 435.906H515.22C514.951 435.906 514.732 436.124 514.732 436.394V437.931C514.732 438.2 514.951 438.419 515.22 438.419Z" fill="#3F3D56"/>
<path d="M506.843 438.419H510.055C510.325 438.419 510.543 438.2 510.543 437.931V436.394C510.543 436.124 510.325 435.906 510.055 435.906H506.843C506.574 435.906 506.355 436.124 506.355 436.394V437.931C506.355 438.2 506.574 438.419 506.843 438.419Z" fill="#3F3D56"/>
<path d="M498.466 438.419H501.678C501.948 438.419 502.167 438.2 502.167 437.931V436.394C502.167 436.124 501.948 435.906 501.678 435.906H498.466C498.197 435.906 497.978 436.124 497.978 436.394V437.931C497.978 438.2 498.197 438.419 498.466 438.419Z" fill="#3F3D56"/>
<path d="M554.592 443.445H587.124C587.393 443.445 587.612 443.226 587.612 442.957V441.42C587.612 441.151 587.393 440.932 587.124 440.932H554.592C554.322 440.932 554.104 441.151 554.104 441.42V442.957C554.104 443.226 554.322 443.445 554.592 443.445Z" fill="#3F3D56"/>
<path d="M520.126 358.737H517.282C516.42 358.737 515.721 359.436 515.721 360.298C515.721 361.16 516.42 361.859 517.282 361.859H520.126C520.988 361.859 521.687 361.16 521.687 360.298C521.687 359.436 520.988 358.737 520.126 358.737Z" fill="white"/>
<path d="M552.649 358.737H549.805C548.943 358.737 548.244 359.436 548.244 360.298C548.244 361.16 548.943 361.859 549.805 361.859H552.649C553.511 361.859 554.21 361.16 554.21 360.298C554.21 359.436 553.511 358.737 552.649 358.737Z" fill="white"/>
<path d="M561.864 358.737H559.02C558.158 358.737 557.459 359.436 557.459 360.298C557.459 361.16 558.158 361.859 559.02 361.859H561.864C562.726 361.859 563.425 361.16 563.425 360.298C563.425 359.436 562.726 358.737 561.864 358.737Z" fill="white"/>
<path d="M543.802 358.477H526.128C525.266 358.477 524.567 359.176 524.567 360.038C524.567 360.9 525.266 361.599 526.128 361.599H543.802C544.665 361.599 545.364 360.9 545.364 360.038C545.364 359.176 544.665 358.477 543.802 358.477Z" fill="white"/>
<path d="M587.166 358.477H569.492C568.63 358.477 567.931 359.176 567.931 360.038C567.931 360.9 568.63 361.599 569.492 361.599H587.166C588.029 361.599 588.728 360.9 588.728 360.038C588.728 359.176 588.029 358.477 587.166 358.477Z" fill="white"/>
<path d="M528.799 365.784H525.955C525.093 365.784 524.394 366.483 524.394 367.345C524.394 368.207 525.093 368.906 525.955 368.906H528.799C529.661 368.906 530.36 368.207 530.36 367.345C530.36 366.483 529.661 365.784 528.799 365.784Z" fill="white"/>
<path d="M561.322 365.784H558.478C557.616 365.784 556.917 366.483 556.917 367.345C556.917 368.207 557.616 368.906 558.478 368.906H561.322C562.184 368.906 562.883 368.207 562.883 367.345C562.883 366.483 562.184 365.784 561.322 365.784Z" fill="white"/>
<path d="M570.537 365.784H567.693C566.831 365.784 566.132 366.483 566.132 367.345C566.132 368.207 566.831 368.906 567.693 368.906H570.537C571.399 368.906 572.098 368.207 572.098 367.345C572.098 366.483 571.399 365.784 570.537 365.784Z" fill="white"/>
<path d="M552.475 365.523H534.801C533.939 365.523 533.24 366.222 533.24 367.085C533.24 367.947 533.939 368.646 534.801 368.646H552.475C553.337 368.646 554.036 367.947 554.036 367.085C554.036 366.222 553.337 365.523 552.475 365.523Z" fill="white"/>
<path d="M595.839 365.523H578.165C577.303 365.523 576.604 366.222 576.604 367.085C576.604 367.947 577.303 368.646 578.165 368.646H595.839C596.701 368.646 597.4 367.947 597.4 367.085C597.4 366.222 596.701 365.523 595.839 365.523Z" fill="white"/>
<path d="M537.471 372.83H534.628C533.766 372.83 533.067 373.529 533.067 374.391C533.067 375.254 533.766 375.953 534.628 375.953H537.471C538.334 375.953 539.032 375.254 539.032 374.391C539.032 373.529 538.334 372.83 537.471 372.83Z" fill="white"/>
<path d="M569.994 372.83H567.151C566.289 372.83 565.59 373.529 565.59 374.391C565.59 375.254 566.289 375.953 567.151 375.953H569.994C570.857 375.953 571.556 375.254 571.556 374.391C571.556 373.529 570.857 372.83 569.994 372.83Z" fill="white"/>
<path d="M579.209 372.83H576.366C575.504 372.83 574.805 373.529 574.805 374.391C574.805 375.254 575.504 375.953 576.366 375.953H579.209C580.072 375.953 580.77 375.254 580.77 374.391C580.77 373.529 580.072 372.83 579.209 372.83Z" fill="white"/>
<path d="M561.148 372.57H543.474C542.612 372.57 541.913 373.269 541.913 374.131C541.913 374.993 542.612 375.692 543.474 375.692H561.148C562.01 375.692 562.709 374.993 562.709 374.131C562.709 373.269 562.01 372.57 561.148 372.57Z" fill="white"/>
<path d="M604.512 372.57H586.838C585.976 372.57 585.277 373.269 585.277 374.131C585.277 374.993 585.976 375.692 586.838 375.692H604.512C605.374 375.692 606.073 374.993 606.073 374.131C606.073 373.269 605.374 372.57 604.512 372.57Z" fill="white"/>
<path d="M546.144 379.877H543.301C542.438 379.877 541.74 380.576 541.74 381.438C541.74 382.3 542.438 382.999 543.301 382.999H546.144C547.006 382.999 547.705 382.3 547.705 381.438C547.705 380.576 547.006 379.877 546.144 379.877Z" fill="white"/>
<path d="M578.667 379.877H575.824C574.961 379.877 574.262 380.576 574.262 381.438C574.262 382.3 574.961 382.999 575.824 382.999H578.667C579.529 382.999 580.228 382.3 580.228 381.438C580.228 380.576 579.529 379.877 578.667 379.877Z" fill="white"/>
<path d="M587.882 379.877H585.038C584.176 379.877 583.477 380.576 583.477 381.438C583.477 382.3 584.176 382.999 585.038 382.999H587.882C588.744 382.999 589.443 382.3 589.443 381.438C589.443 380.576 588.744 379.877 587.882 379.877Z" fill="white"/>
<path d="M569.821 379.617H552.147C551.285 379.617 550.586 380.316 550.586 381.178C550.586 382.04 551.285 382.739 552.147 382.739H569.821C570.683 382.739 571.382 382.04 571.382 381.178C571.382 380.316 570.683 379.617 569.821 379.617Z" fill="white"/>
<path d="M552.649 407.898H549.805C548.943 407.898 548.244 408.596 548.244 409.459C548.244 410.321 548.943 411.02 549.805 411.02H552.649C553.511 411.02 554.21 410.321 554.21 409.459C554.21 408.596 553.511 407.898 552.649 407.898Z" fill="white"/>
<path d="M561.864 407.898H559.02C558.158 407.898 557.459 408.596 557.459 409.459C557.459 410.321 558.158 411.02 559.02 411.02H561.864C562.726 411.02 563.425 410.321 563.425 409.459C563.425 408.596 562.726 407.898 561.864 407.898Z" fill="white"/>
<path d="M587.166 408.158H569.492C568.63 408.158 567.931 408.857 567.931 409.719C567.931 410.581 568.63 411.28 569.492 411.28H587.166C588.029 411.28 588.728 410.581 588.728 409.719C588.728 408.857 588.029 408.158 587.166 408.158Z" fill="white"/>
<path d="M520.126 407.898H517.282C516.42 407.898 515.721 408.596 515.721 409.459C515.721 410.321 516.42 411.02 517.282 411.02H520.126C520.988 411.02 521.687 410.321 521.687 409.459C521.687 408.596 520.988 407.898 520.126 407.898Z" fill="white"/>
<path d="M543.802 408.158H526.128C525.266 408.158 524.567 408.857 524.567 409.719C524.567 410.581 525.266 411.28 526.128 411.28H543.802C544.665 411.28 545.364 410.581 545.364 409.719C545.364 408.857 544.665 408.158 543.802 408.158Z" fill="white"/>
<path d="M528.799 400.851H525.955C525.093 400.851 524.394 401.55 524.394 402.412C524.394 403.274 525.093 403.973 525.955 403.973H528.799C529.661 403.973 530.36 403.274 530.36 402.412C530.36 401.55 529.661 400.851 528.799 400.851Z" fill="white"/>
<path d="M561.322 400.851H558.478C557.616 400.851 556.917 401.55 556.917 402.412C556.917 403.274 557.616 403.973 558.478 403.973H561.322C562.184 403.973 562.883 403.274 562.883 402.412C562.883 401.55 562.184 400.851 561.322 400.851Z" fill="white"/>
<path d="M570.537 400.851H567.693C566.831 400.851 566.132 401.55 566.132 402.412C566.132 403.274 566.831 403.973 567.693 403.973H570.537C571.399 403.973 572.098 403.274 572.098 402.412C572.098 401.55 571.399 400.851 570.537 400.851Z" fill="white"/>
<path d="M552.475 401.111H534.801C533.939 401.111 533.24 401.81 533.24 402.672C533.24 403.534 533.939 404.233 534.801 404.233H552.475C553.337 404.233 554.036 403.534 554.036 402.672C554.036 401.81 553.337 401.111 552.475 401.111Z" fill="white"/>
<path d="M537.471 393.804H534.628C533.766 393.804 533.067 394.503 533.067 395.365C533.067 396.227 533.766 396.926 534.628 396.926H537.471C538.334 396.926 539.032 396.227 539.032 395.365C539.032 394.503 538.334 393.804 537.471 393.804Z" fill="white"/>
<path d="M569.994 393.804H567.151C566.289 393.804 565.59 394.503 565.59 395.365C565.59 396.227 566.289 396.926 567.151 396.926H569.994C570.857 396.926 571.556 396.227 571.556 395.365C571.556 394.503 570.857 393.804 569.994 393.804Z" fill="white"/>
<path d="M579.209 393.804H576.366C575.504 393.804 574.805 394.503 574.805 395.365C574.805 396.227 575.504 396.926 576.366 396.926H579.209C580.072 396.926 580.77 396.227 580.77 395.365C580.77 394.503 580.072 393.804 579.209 393.804Z" fill="white"/>
<path d="M561.148 394.064H543.474C542.612 394.064 541.913 394.763 541.913 395.626C541.913 396.488 542.612 397.187 543.474 397.187H561.148C562.01 397.187 562.709 396.488 562.709 395.626C562.709 394.763 562.01 394.064 561.148 394.064Z" fill="white"/>
<path d="M546.144 386.758H543.301C542.438 386.758 541.74 387.457 541.74 388.319C541.74 389.181 542.438 389.88 543.301 389.88H546.144C547.006 389.88 547.705 389.181 547.705 388.319C547.705 387.457 547.006 386.758 546.144 386.758Z" fill="white"/>
<path d="M578.667 386.758H575.824C574.961 386.758 574.262 387.457 574.262 388.319C574.262 389.181 574.961 389.88 575.824 389.88H578.667C579.529 389.88 580.228 389.181 580.228 388.319C580.228 387.457 579.529 386.758 578.667 386.758Z" fill="white"/>
<path d="M587.882 386.758H585.038C584.176 386.758 583.477 387.457 583.477 388.319C583.477 389.181 584.176 389.88 585.038 389.88H587.882C588.744 389.88 589.443 389.181 589.443 388.319C589.443 387.457 588.744 386.758 587.882 386.758Z" fill="white"/>
<path d="M569.821 387.018H552.147C551.285 387.018 550.586 387.717 550.586 388.579C550.586 389.441 551.285 390.14 552.147 390.14H569.821C570.683 390.14 571.382 389.441 571.382 388.579C571.382 387.717 570.683 387.018 569.821 387.018Z" fill="white"/>
<path d="M505.008 486.764L491.659 465.662L533.561 432.259L550.856 413.098C553.103 410.609 555.964 408.753 559.153 407.716C562.342 406.678 565.748 406.496 569.029 407.187C572.311 407.879 575.353 409.419 577.853 411.654C580.353 413.89 582.222 416.742 583.274 419.926C584.833 424.645 584.498 429.785 582.339 434.261C580.18 438.737 576.367 442.199 571.704 443.917L544.355 453.993L505.008 486.764Z" fill="#FFB6B6"/>
<path d="M191.78 337.481V440.041H263.63V337.481C263.631 336.743 263.396 336.025 262.958 335.431C262.521 334.837 261.905 334.399 261.2 334.181C260.868 334.071 260.52 334.017 260.17 334.021H195.25C194.795 334.02 194.344 334.109 193.923 334.282C193.503 334.456 193.12 334.71 192.798 335.032C192.476 335.353 192.22 335.735 192.045 336.155C191.871 336.575 191.78 337.026 191.78 337.481ZM219.82 372.721C219.839 370.699 220.655 368.766 222.091 367.343C223.528 365.92 225.468 365.122 227.49 365.122C229.512 365.122 231.452 365.92 232.889 367.343C234.325 368.766 235.141 370.699 235.16 372.721V384.621C235.15 386.648 234.337 388.589 232.9 390.019C231.462 391.449 229.517 392.252 227.49 392.252C225.463 392.252 223.518 391.449 222.08 390.019C220.643 388.589 219.83 386.648 219.82 384.621V372.721Z" fill="#2F2E41"/>
<path d="M191.56 436.761V446.651C191.562 447.163 191.765 447.654 192.127 448.017C192.488 448.381 192.978 448.587 193.49 448.591H261.92C262.433 448.588 262.924 448.383 263.285 448.019C263.647 447.656 263.85 447.164 263.85 446.651V436.761H191.56Z" fill="#3F3D56"/>
<path d="M78.75 182.961V370.221C78.7519 372.607 79.7007 374.895 81.3881 376.583C83.0755 378.27 85.3636 379.219 87.75 379.221H365.25C367.636 379.219 369.924 378.27 371.612 376.583C373.299 374.895 374.248 372.607 374.25 370.221V182.961C374.244 180.577 373.294 178.292 371.607 176.607C369.92 174.922 367.634 173.974 365.25 173.971H87.75C85.3657 173.974 83.0798 174.922 81.3929 176.607C79.706 178.292 78.7557 180.577 78.75 182.961Z" fill="#3F3D56"/>
<path d="M85.26 185.291V367.911C85.2622 369.186 85.7697 370.408 86.6712 371.31C87.5728 372.211 88.795 372.719 90.07 372.721H362.94C364.215 372.719 365.437 372.211 366.339 371.31C367.24 370.408 367.748 369.186 367.75 367.911V185.291C367.75 184.014 367.243 182.79 366.342 181.886C365.44 180.983 364.217 180.474 362.94 180.471H90.07C88.7934 180.474 87.5701 180.983 86.6684 181.886C85.7666 182.79 85.2601 184.014 85.26 185.291Z" fill="white"/>
<path d="M135.9 447.921C136.178 448.269 136.531 448.55 136.933 448.742C137.334 448.934 137.775 449.033 138.22 449.031H300.56C301.004 449.03 301.442 448.931 301.843 448.74C302.244 448.548 302.597 448.27 302.876 447.925C303.156 447.581 303.355 447.178 303.46 446.746C303.564 446.315 303.571 445.865 303.48 445.431L300.96 433.461C300.856 432.973 300.631 432.518 300.306 432.139C299.981 431.76 299.566 431.469 299.1 431.291C298.762 431.158 298.403 431.09 298.04 431.091H140.73C140.367 431.09 140.008 431.158 139.67 431.291C139.204 431.469 138.789 431.76 138.464 432.139C138.139 432.518 137.914 432.973 137.81 433.461L135.29 445.431C135.2 445.865 135.209 446.314 135.314 446.745C135.42 447.175 135.62 447.577 135.9 447.921Z" fill="#2F2E41"/>
<path d="M354.085 205.628H98.7611C98.4957 205.622 98.2432 205.512 98.0576 205.322C97.872 205.133 97.7681 204.878 97.7681 204.612C97.7681 204.347 97.872 204.092 98.0576 203.902C98.2432 203.712 98.4957 203.603 98.7611 203.597H354.085C354.35 203.603 354.602 203.712 354.788 203.902C354.974 204.092 355.078 204.347 355.078 204.612C355.078 204.878 354.974 205.133 354.788 205.322C354.602 205.512 354.35 205.622 354.085 205.628Z" fill="#3F3D56"/>
<path d="M116.141 198.413C119.428 198.413 122.092 195.689 122.092 192.33C122.092 188.97 119.428 186.247 116.141 186.247C112.855 186.247 110.191 188.97 110.191 192.33C110.191 195.689 112.855 198.413 116.141 198.413Z" fill="#3F3D56"/>
<path d="M136.697 198.413C139.984 198.413 142.648 195.689 142.648 192.33C142.648 188.97 139.984 186.247 136.697 186.247C133.411 186.247 130.747 188.97 130.747 192.33C130.747 195.689 133.411 198.413 136.697 198.413Z" fill="#3F3D56"/>
<path d="M157.253 198.413C160.54 198.413 163.204 195.689 163.204 192.33C163.204 188.97 160.54 186.247 157.253 186.247C153.967 186.247 151.303 188.97 151.303 192.33C151.303 195.689 153.967 198.413 157.253 198.413Z" fill="#3F3D56"/>
<path d="M341.706 187.751H327.106C326.818 187.758 326.543 187.877 326.342 188.083C326.14 188.29 326.027 188.567 326.027 188.856C326.027 189.145 326.14 189.422 326.342 189.628C326.543 189.835 326.818 189.954 327.106 189.961H341.706C341.997 189.957 342.274 189.839 342.478 189.632C342.682 189.425 342.796 189.146 342.796 188.856C342.796 188.565 342.682 188.287 342.478 188.08C342.274 187.873 341.997 187.755 341.706 187.751Z" fill="#3F3D56"/>
<path d="M341.706 191.901H327.106C326.818 191.907 326.543 192.027 326.341 192.233C326.139 192.44 326.026 192.717 326.026 193.006C326.026 193.295 326.139 193.572 326.341 193.779C326.543 193.985 326.818 194.104 327.106 194.111H341.706C341.997 194.107 342.275 193.989 342.479 193.783C342.684 193.576 342.798 193.297 342.798 193.006C342.798 192.715 342.684 192.436 342.479 192.229C342.275 192.022 341.997 191.904 341.706 191.901Z" fill="#3F3D56"/>
<path d="M341.706 196.051H327.106C326.818 196.058 326.543 196.177 326.342 196.383C326.14 196.59 326.027 196.867 326.027 197.156C326.027 197.445 326.14 197.722 326.342 197.928C326.543 198.135 326.818 198.254 327.106 198.261H341.706C341.997 198.257 342.274 198.138 342.478 197.932C342.682 197.725 342.796 197.446 342.796 197.156C342.796 196.865 342.682 196.587 342.478 196.38C342.274 196.173 341.997 196.055 341.706 196.051Z" fill="#3F3D56"/>
<path d="M693.686 441.101C694.126 442.384 694.962 443.494 696.073 444.272C697.184 445.05 698.513 445.457 699.869 445.432L726.361 444.75C727.727 444.724 729.047 444.256 730.125 443.416C731.204 442.577 731.981 441.411 732.342 440.093L736.09 400.006C737.42 400.609 738.868 400.906 740.328 400.877C741.597 400.845 742.846 400.564 744.006 400.049C745.166 399.534 746.212 398.796 747.087 397.877C747.961 396.957 748.646 395.875 749.102 394.691C749.558 393.507 749.776 392.245 749.744 390.976C749.712 389.708 749.431 388.458 748.916 387.299C748.401 386.139 747.663 385.092 746.744 384.218C745.825 383.344 744.742 382.659 743.558 382.203C742.374 381.747 741.112 381.529 739.843 381.56C739.26 381.559 738.678 381.619 738.107 381.741C737.487 381.07 736.732 380.536 735.893 380.173C735.053 379.811 734.147 379.629 733.233 379.638L692.483 380.69C692.145 380.703 691.808 380.745 691.478 380.815C690.584 380.982 689.736 381.338 688.992 381.859C688.247 382.381 687.623 383.056 687.161 383.839C686.7 384.622 686.411 385.495 686.315 386.399C686.219 387.303 686.318 388.217 686.604 389.08L693.686 441.101ZM736.859 397.284L739.527 387.732C739.83 386.628 739.837 385.464 739.547 384.357C739.677 384.357 739.791 384.295 739.92 384.295C741.749 384.257 743.519 384.946 744.841 386.211C746.163 387.476 746.929 389.213 746.972 391.042C747.015 392.871 746.33 394.643 745.069 395.968C743.808 397.293 742.073 398.064 740.244 398.112C739.061 398.149 737.891 397.863 736.859 397.284Z" fill="#2F2E41"/>
<path d="M691.478 380.815C692.346 385.779 702.107 389.269 713.843 388.662C724.636 388.165 733.461 384.375 735.078 379.884C734.479 379.707 733.857 379.624 733.233 379.638L692.483 380.69C692.145 380.703 691.808 380.744 691.478 380.815Z" fill="#3F3D56"/>
<path d="M715.994 419.073C716.048 419.059 716.099 419.037 716.145 419.007L721.899 415.241C721.968 415.196 722.025 415.134 722.065 415.061C722.104 414.988 722.125 414.906 722.125 414.823C722.125 414.74 722.104 414.658 722.065 414.585C722.025 414.512 721.968 414.45 721.899 414.405L715.919 410.488C715.864 410.452 715.803 410.427 715.738 410.414C715.673 410.402 715.607 410.402 715.543 410.415C715.478 410.429 715.417 410.454 715.362 410.491C715.308 410.528 715.261 410.576 715.225 410.631C715.189 410.686 715.164 410.747 715.152 410.812C715.14 410.877 715.141 410.943 715.154 411.008C715.168 411.072 715.194 411.133 715.231 411.187C715.268 411.242 715.316 411.288 715.371 411.324L720.712 414.822L715.598 418.17C715.499 418.235 715.426 418.333 715.392 418.446C715.359 418.559 715.366 418.681 715.414 418.789C715.461 418.898 715.546 418.986 715.652 419.038C715.758 419.089 715.88 419.102 715.994 419.073H715.994Z" fill="#E35D6A"/>
<path d="M706.908 419.492C707.004 419.468 707.091 419.415 707.158 419.341C707.224 419.266 707.267 419.174 707.28 419.075C707.294 418.977 707.278 418.876 707.234 418.787C707.19 418.698 707.12 418.623 707.034 418.574L701.731 415.533L706.856 411.726C706.909 411.687 706.953 411.638 706.987 411.582C707.021 411.525 707.043 411.463 707.053 411.398C707.062 411.333 707.059 411.267 707.043 411.203C707.027 411.14 706.998 411.08 706.959 411.027C706.92 410.974 706.871 410.93 706.815 410.896C706.758 410.863 706.696 410.84 706.631 410.831C706.566 410.821 706.5 410.825 706.436 410.841C706.373 410.857 706.313 410.885 706.26 410.924L700.522 415.187C700.455 415.236 700.402 415.301 700.367 415.377C700.331 415.452 700.316 415.535 700.32 415.617C700.325 415.7 700.351 415.781 700.395 415.851C700.438 415.922 700.499 415.98 700.571 416.021L706.536 419.441C706.649 419.506 706.782 419.524 706.908 419.492Z" fill="#E35D6A"/>
<path d="M715.422 422.373C715.471 422.361 715.517 422.341 715.559 422.315C715.615 422.281 715.664 422.236 715.703 422.183C715.742 422.13 715.77 422.07 715.785 422.006C715.801 421.942 715.804 421.876 715.794 421.811C715.784 421.746 715.761 421.684 715.727 421.628L707.571 408.22C707.502 408.107 707.391 408.026 707.262 407.994C707.133 407.963 706.997 407.985 706.884 408.054C706.771 408.123 706.69 408.234 706.658 408.362C706.627 408.491 706.648 408.627 706.717 408.74L714.872 422.149C714.928 422.24 715.011 422.311 715.11 422.351C715.209 422.392 715.319 422.399 715.422 422.373Z" fill="#E35D6A"/>
<path d="M256.93 260.827H212.739C210.936 260.827 209.475 262.289 209.475 264.091V268.409C209.475 270.211 210.936 271.673 212.739 271.673H256.93C258.732 271.673 260.194 270.211 260.194 268.409V264.091C260.194 262.289 258.732 260.827 256.93 260.827Z" fill="#E35D6A"/>
<path d="M282.688 282.519H186.98C185.177 282.519 183.716 283.98 183.716 285.783V290.1C183.716 291.903 185.177 293.364 186.98 293.364H282.688C284.491 293.364 285.952 291.903 285.952 290.1V285.783C285.952 283.98 284.491 282.519 282.688 282.519Z" fill="#E6E6E6"/>
<path d="M282.688 304.21H186.98C185.177 304.21 183.716 305.671 183.716 307.474V311.791C183.716 313.594 185.177 315.056 186.98 315.056H282.688C284.491 315.056 285.952 313.594 285.952 311.791V307.474C285.952 305.671 284.491 304.21 282.688 304.21Z" fill="#E6E6E6"/>
<path d="M290.798 376.842L291.014 377.526L291.026 377.549L297.551 397.387L305.057 420.248L319.18 463.209L319.317 469.883V469.906L320.366 523.59L317.457 530.868L320.731 542.801C320.731 542.801 319.226 524.764 311.149 535.122C306.575 541.008 301.224 547.031 296.832 552.678C303.232 555.268 309.734 557.61 316.34 559.705C317.766 560.162 319.203 560.595 320.64 561.029C320.948 561.12 321.256 561.211 321.564 561.302C343.459 567.777 366.094 571.416 388.915 572.128C390.101 572.163 391.265 572.185 392.394 572.208C392.794 572.22 393.182 572.231 393.569 572.231C394.847 572.242 396.113 572.254 397.391 572.254C399.969 572.254 402.536 572.216 405.091 572.14C424.004 571.607 442.807 569.064 461.183 564.554C461.057 556.967 460.715 548.104 460.224 538.635C459.996 533.992 454.874 528.962 454.566 524.102C454.349 520.452 458.947 517.018 458.707 513.31C457.156 490.484 455.216 499.246 453.779 483.081C453.631 481.496 453.494 479.979 453.368 478.53C452.444 468.149 451.806 461.658 451.806 461.658L457.943 422.974L467.582 362.24L466.841 361.019L466.008 360.609L415.164 335.443L412.403 328.371C411.599 326.333 410.204 324.583 408.396 323.345C406.589 322.107 404.453 321.437 402.262 321.423L368.769 321.286C367.031 321.279 365.316 321.685 363.767 322.473C362.217 323.261 360.878 324.406 359.86 325.815L350.791 338.375L290.798 376.842Z" fill="#3F3D56"/>
<path d="M443.895 453.146L453.371 473.421L456.679 480.482L465.586 527.124L470.031 531.846L473.862 515.091L475.662 514.722L508.12 508L517.581 538.046C519.713 534.493 520.553 530.313 519.959 526.212C519.365 522.112 517.372 518.342 514.319 515.54C513.673 514.956 513.135 514.387 513.15 513.848C513.689 481.405 511.704 422.165 493.783 397.782C488.091 390.045 484.676 382.338 479.707 376.954C479.692 376.938 479.692 376.923 479.677 376.923L467.585 357.125L466.847 355.909L466.016 355.494L443.895 453.146Z" fill="#3F3D56"/>
<path d="M386.49 311.758C411.099 311.758 431.048 291.809 431.048 267.2C431.048 242.591 411.099 222.642 386.49 222.642C361.881 222.642 341.932 242.591 341.932 267.2C341.932 291.809 361.881 311.758 386.49 311.758Z" fill="#FFB6B6"/>
<path d="M446.715 236.079C446.37 235.71 445.954 235.415 445.491 235.21C445.029 235.006 444.53 234.897 444.025 234.889L444.695 233.029C444.914 232.443 444.973 231.81 444.866 231.194C444.759 230.578 444.491 230.001 444.088 229.523C443.685 229.044 443.162 228.682 442.573 228.472C441.984 228.262 441.35 228.213 440.735 228.329L438.295 228.799L438.525 227.169C438.613 226.562 438.542 225.943 438.318 225.371C438.094 224.8 437.726 224.297 437.248 223.912C436.771 223.526 436.202 223.272 435.596 223.173C434.991 223.075 434.37 223.135 433.795 223.349C433.272 223.555 432.71 223.641 432.149 223.602C431.588 223.562 431.044 223.397 430.555 223.119C430.064 222.85 429.638 222.477 429.307 222.026C428.975 221.576 428.746 221.058 428.635 220.509L427.785 216.409L427.695 216.189C423.555 209.289 415.595 204.269 405.855 202.429C397.185 200.779 388.295 201.619 379.725 202.409C376.325 202.729 372.485 203.089 369.285 205.049C366.565 206.729 364.265 210.089 364.735 213.479C356.285 210.889 347.225 216.059 342.735 222.579C337.415 230.339 336.545 240.059 336.405 247.659C336.025 265.639 339.735 280.349 347.405 291.389C347.965 292.189 348.105 293.859 349.215 294.419L348.985 294.049C350.225 294.669 351.485 295.669 351.015 296.739C349.665 299.819 358.635 306.629 364.955 308.879C376.485 312.989 391.815 312.639 402.595 311.159L402.975 308.609C406.865 308.079 409.605 307.069 410.375 305.489C411.735 304.329 412.895 303.289 413.905 302.329L413.915 302.319C413.935 302.299 413.975 302.269 413.995 302.249C418.865 297.579 419.995 294.919 420.505 290.869C420.995 286.899 420.125 282.869 419.235 279.239C437.975 282.139 411.855 259.279 429.315 254.859C429.515 254.798 429.719 254.747 429.925 254.709C430.435 254.589 430.945 254.469 431.435 254.329C433.797 253.688 436.059 252.722 438.155 251.459C443.035 248.489 444.645 244.549 447.165 240.109C447.529 239.477 447.681 238.745 447.6 238.021C447.519 237.296 447.209 236.616 446.715 236.079Z" fill="#2F2E41"/>
<path d="M544.085 461.438C544.075 463.188 544.055 465.638 543.975 468.668C543.965 469.088 543.955 469.518 543.945 469.958C543.815 475.528 543.685 480.198 543.475 485.388C543.465 485.748 543.455 486.098 543.435 486.458C543.155 493.698 542.715 502.128 541.955 515.478C540.545 540.138 538.085 518.868 535.615 527.518C535.495 527.948 535.365 528.458 535.245 529.058C534.871 531.235 534.24 533.359 533.365 535.388C532.055 536.168 530.705 536.918 529.375 537.668C525.585 539.778 521.735 541.808 517.855 543.738C515.675 544.818 513.485 545.878 511.285 546.898C510.935 547.058 510.595 547.218 510.255 547.368C498.989 552.579 487.378 557.009 475.505 560.628C473.185 561.328 470.875 562.008 468.535 562.638C466.095 563.318 463.655 563.958 461.185 564.558C442.81 569.069 424.008 571.613 405.095 572.148C402.545 572.228 399.975 572.258 397.395 572.258C396.115 572.258 394.855 572.248 393.575 572.238C393.185 572.238 392.795 572.228 392.405 572.218C391.275 572.188 390.105 572.168 388.925 572.138C366.104 571.426 343.469 567.786 321.575 561.308L320.645 561.038C319.205 560.598 317.775 560.168 316.345 559.708C309.745 557.618 303.242 555.278 296.835 552.688C291.945 550.718 287.112 548.604 282.335 546.348C282.291 546.336 282.251 546.316 282.215 546.288C281.215 545.828 280.205 545.348 279.205 544.858C279.075 544.788 278.935 544.718 278.795 544.648C275.065 542.828 271.375 540.921 267.725 538.928C264.655 531.878 260.335 530.528 257.655 524.328C256.875 522.486 256.311 520.56 255.975 518.588C255.975 518.568 255.965 518.548 255.965 518.518C256.245 522.238 254.775 511.918 255.955 518.478C255.945 518.358 255.935 518.228 255.925 518.078C255.895 517.718 255.855 517.278 255.795 516.728C252.365 483.238 252.585 444.938 251.095 413.378C250.995 411.338 250.892 409.384 250.785 407.518C250.755 406.898 250.715 406.288 250.675 405.688C250.745 405.508 250.825 405.318 250.915 405.138C250.934 405.086 250.958 405.036 250.985 404.988C251.015 404.926 251.048 404.866 251.085 404.808C251.105 404.778 251.135 404.738 251.155 404.708C251.17 404.673 251.186 404.64 251.205 404.608C251.295 404.468 251.395 404.318 251.505 404.178C251.555 404.118 251.595 404.068 251.645 404.018C251.68 403.967 251.72 403.92 251.765 403.878C251.796 403.83 251.833 403.786 251.875 403.748C251.915 403.708 251.955 403.658 252.005 403.608C252.026 403.576 252.054 403.549 252.085 403.528C252.164 403.437 252.251 403.353 252.345 403.278C252.702 402.949 253.083 402.649 253.485 402.378C253.625 402.288 253.775 402.198 253.915 402.098C254.923 401.495 255.984 400.986 257.085 400.578C257.465 400.438 257.845 400.308 258.255 400.168C258.405 400.128 258.545 400.078 258.695 400.028C258.915 399.958 259.135 399.888 259.365 399.838C260.505 399.498 261.735 399.208 263.065 398.938C263.225 398.908 263.395 398.878 263.565 398.838C263.805 398.788 264.055 398.748 264.305 398.708C264.645 398.648 264.995 398.588 265.345 398.528C268.315 398.058 271.685 397.708 275.405 397.478C275.755 397.458 276.105 397.438 276.455 397.418C276.865 397.398 277.275 397.378 277.695 397.358C278.045 397.338 278.405 397.328 278.765 397.318C279.115 397.298 279.475 397.288 279.845 397.278C280.855 397.248 281.895 397.218 282.955 397.198C285.975 397.138 289.155 397.158 292.495 397.228C294.045 397.268 295.625 397.308 297.245 397.378C297.355 397.378 297.455 397.388 297.555 397.388C298.965 397.438 300.385 397.498 301.845 397.578C302.865 397.628 303.895 397.678 304.925 397.738C305.895 397.798 306.875 397.858 307.865 397.928C308.635 397.968 309.405 398.028 310.185 398.078C310.845 398.128 311.505 398.178 312.165 398.218L313.065 398.278C313.555 398.318 314.045 398.348 314.545 398.398C315.645 398.488 316.745 398.578 317.865 398.668C318.975 398.768 320.105 398.868 321.235 398.968C322.365 399.068 323.505 399.178 324.645 399.288C324.765 399.298 324.875 399.308 324.985 399.318C326.025 399.428 327.065 399.528 328.115 399.638C328.355 399.658 328.605 399.678 328.845 399.708C329.846 399.808 330.867 399.926 331.877 400.033C332.187 400.067 332.495 400.099 332.806 400.133C333.598 400.219 334.378 400.294 335.175 400.388C336.225 400.508 337.295 400.618 338.335 400.758C339.145 400.848 339.955 400.938 340.765 401.038C342.035 401.188 343.325 401.348 344.615 401.518C345.105 401.578 345.595 401.638 346.085 401.708C349.765 402.168 353.485 402.678 357.265 403.208C362.995 404.018 368.815 404.898 374.675 405.848C380.545 406.798 386.448 407.801 392.385 408.858C393.885 409.128 395.385 409.398 396.895 409.678C397.575 409.808 398.255 409.938 398.935 410.068C400.095 410.278 401.255 410.498 402.415 410.718C403.575 410.938 404.735 411.158 405.895 411.388C407.275 411.658 408.665 411.928 410.045 412.198C419.135 413.998 428.175 415.918 436.995 417.928C438.445 418.258 439.895 418.598 441.335 418.928C444.215 419.598 447.068 420.278 449.895 420.968C450.675 421.148 451.445 421.338 452.215 421.528C454.135 422.008 456.055 422.488 457.945 422.978L458.275 423.068C459.665 423.408 461.025 423.758 462.385 424.118C465.595 424.958 468.752 425.808 471.855 426.668C473.915 427.238 475.952 427.814 477.965 428.398C480.975 429.268 483.925 430.148 486.795 431.038C487.505 431.258 488.215 431.478 488.915 431.688C491.015 432.338 493.085 432.998 495.095 433.658C496.695 434.178 498.255 434.708 499.795 435.238C501.335 435.768 502.845 436.298 504.325 436.828C505.275 437.168 506.215 437.528 507.155 437.868C508.505 438.368 509.835 438.868 511.135 439.368C511.535 439.518 511.925 439.678 512.315 439.828C512.565 439.938 512.805 440.028 513.045 440.128C513.515 440.318 513.995 440.498 514.455 440.688C514.925 440.868 515.385 441.058 515.845 441.258C516.295 441.438 516.755 441.628 517.195 441.818C517.645 441.998 518.085 442.188 518.525 442.388C518.895 442.538 519.255 442.698 519.605 442.858C520.315 443.168 521.025 443.478 521.715 443.798C522.055 443.958 522.395 444.108 522.735 444.268L523.515 444.628C523.625 444.688 523.735 444.738 523.845 444.788C524.095 444.908 524.355 445.038 524.605 445.158C525.185 445.428 525.755 445.718 526.315 445.988C527.065 446.368 527.795 446.748 528.495 447.118C529.205 447.498 529.895 447.878 530.555 448.248C530.665 448.308 530.765 448.368 530.875 448.428C531.025 448.508 531.175 448.598 531.325 448.678C531.835 448.968 532.325 449.268 532.815 449.558C533.775 450.148 534.685 450.728 535.535 451.308C535.725 451.438 535.905 451.568 536.095 451.688C536.725 452.138 537.325 452.578 537.885 453.028C537.885 453.038 537.885 453.038 537.895 453.038C538.085 453.178 538.265 453.328 538.445 453.468C538.595 453.608 538.755 453.728 538.905 453.868C539.425 454.318 539.905 454.748 540.345 455.188C540.492 455.323 540.633 455.467 540.765 455.618C540.823 455.666 540.877 455.719 540.925 455.778C541.125 455.978 541.305 456.178 541.475 456.378C541.501 456.405 541.525 456.435 541.545 456.468C541.785 456.748 542.005 457.028 542.215 457.308C542.315 457.448 542.425 457.588 542.515 457.728C542.635 457.898 542.755 458.078 542.855 458.248C542.945 458.388 543.025 458.538 543.105 458.678C543.317 459.038 543.498 459.416 543.645 459.808C543.757 460.073 543.848 460.347 543.915 460.628C543.991 460.893 544.048 461.164 544.085 461.438Z" fill="#2F2E41"/>
<path opacity="0.2" d="M544.08 461.434C544.07 463.184 544.05 465.634 543.97 468.664C543.96 469.084 543.94 469.514 543.93 469.954C543.83 474.204 543.68 479.454 543.47 485.384C543.46 485.744 543.45 486.094 543.43 486.454C543.15 493.694 542.71 502.124 541.95 515.474C540.54 540.134 538.08 518.864 535.61 527.514C528.75 523.294 521.23 518.874 513.19 514.334C511.74 513.514 510.277 512.691 508.8 511.864C492.72 502.894 474.76 493.494 456.01 484.184C455.27 483.814 454.52 483.444 453.78 483.084C410.83 461.854 363.95 441.204 325.97 427.424C318.64 424.764 311.64 422.364 305.06 420.254C291.2 415.824 279.22 412.724 270 411.384C260.4 409.984 253.77 410.484 251.09 413.374C250.99 411.334 250.887 409.38 250.78 407.514C250.74 406.894 250.7 406.284 250.66 405.684C250.722 405.519 250.802 405.362 250.88 405.204C250.891 405.18 250.899 405.157 250.91 405.134C250.929 405.082 250.953 405.032 250.98 404.984C251.01 404.922 251.043 404.862 251.08 404.804C251.113 404.733 251.153 404.666 251.2 404.604C251.29 404.464 251.39 404.314 251.5 404.174C251.581 404.069 251.668 403.969 251.76 403.874C251.791 403.826 251.828 403.782 251.87 403.744C251.91 403.704 251.95 403.654 252 403.604C252.021 403.572 252.049 403.545 252.08 403.524C252.159 403.433 252.246 403.349 252.34 403.274C252.697 402.946 253.078 402.645 253.48 402.374C253.62 402.284 253.77 402.194 253.91 402.094C254.918 401.491 255.979 400.982 257.08 400.574C257.46 400.434 257.84 400.304 258.25 400.164C258.4 400.124 258.54 400.074 258.69 400.024C258.91 399.954 259.13 399.884 259.36 399.834C260.5 399.494 261.73 399.204 263.06 398.934C263.46 398.854 263.88 398.774 264.3 398.704C264.64 398.644 264.99 398.584 265.34 398.524C268.31 398.054 271.68 397.704 275.4 397.474C275.75 397.454 276.1 397.434 276.45 397.414C276.86 397.394 277.27 397.374 277.69 397.354C278.04 397.334 278.4 397.324 278.76 397.314C279.11 397.294 279.47 397.284 279.84 397.274C280.85 397.244 281.89 397.214 282.95 397.194C285.97 397.144 289.15 397.164 292.49 397.234C294.04 397.264 295.62 397.314 297.24 397.384C297.34 397.384 297.45 397.394 297.55 397.394C298.96 397.434 300.39 397.504 301.84 397.574C302.86 397.624 303.89 397.674 304.92 397.734C305.89 397.794 306.87 397.854 307.86 397.924C308.63 397.964 309.4 398.024 310.18 398.074C310.84 398.124 311.5 398.174 312.16 398.214C312.95 398.274 313.74 398.334 314.54 398.394C315.64 398.484 316.74 398.574 317.86 398.664C318.97 398.764 320.1 398.864 321.23 398.964C322.36 399.064 323.5 399.174 324.64 399.284C324.76 399.294 324.87 399.304 324.98 399.314C326.02 399.424 327.06 399.524 328.11 399.634C333.93 400.224 339.92 400.914 346.08 401.704C349.76 402.174 353.487 402.677 357.26 403.214C362.99 404.024 368.81 404.904 374.67 405.844C380.54 406.794 386.443 407.797 392.38 408.854C393.88 409.124 395.38 409.394 396.89 409.674C398.73 410.014 400.57 410.36 402.41 410.714C403.57 410.934 404.73 411.154 405.89 411.384C407.27 411.654 408.66 411.924 410.04 412.194C419.13 413.994 428.17 415.914 436.99 417.924C438.44 418.254 439.89 418.594 441.33 418.924C444.21 419.594 447.063 420.274 449.89 420.964C450.67 421.154 451.44 421.344 452.21 421.534C454.14 422.014 456.05 422.494 457.94 422.974V422.984C458.05 423.004 458.16 423.034 458.27 423.064C459.65 423.414 461.02 423.764 462.38 424.124C465.59 424.964 468.747 425.81 471.85 426.664C473.91 427.244 475.95 427.814 477.96 428.394C480.97 429.274 483.92 430.154 486.79 431.034C487.5 431.254 488.21 431.474 488.91 431.684C491.01 432.344 493.07 433 495.09 433.654C496.69 434.174 498.25 434.704 499.79 435.234C501.33 435.764 502.84 436.294 504.32 436.824C505.28 437.164 506.22 437.514 507.15 437.854C508.51 438.354 509.83 438.854 511.13 439.364C511.53 439.514 511.92 439.674 512.31 439.824C513.04 440.104 513.75 440.394 514.45 440.684C514.92 440.864 515.38 441.054 515.84 441.254C516.29 441.434 516.75 441.624 517.19 441.814C517.64 441.994 518.08 442.184 518.52 442.384C518.89 442.534 519.25 442.694 519.6 442.854C520.31 443.164 521.02 443.474 521.71 443.794C522.05 443.954 522.39 444.104 522.73 444.264L523.51 444.624C523.62 444.684 523.73 444.734 523.84 444.784C524.69 445.184 525.51 445.584 526.31 445.984C527.06 446.364 527.79 446.744 528.49 447.114C529.32 447.554 530.11 447.984 530.87 448.424C531.02 448.504 531.17 448.594 531.32 448.674C531.83 448.964 532.32 449.264 532.81 449.554C533.77 450.144 534.68 450.724 535.53 451.304C536.37 451.884 537.15 452.454 537.88 453.024C537.88 453.034 537.88 453.034 537.89 453.034C538.24 453.314 538.58 453.594 538.9 453.864C539.42 454.314 539.9 454.744 540.34 455.184C540.488 455.32 540.628 455.463 540.76 455.614C540.818 455.662 540.872 455.716 540.92 455.774C541.13 456.004 541.34 456.234 541.54 456.464C541.78 456.744 542 457.024 542.21 457.304C542.31 457.444 542.42 457.584 542.51 457.724C542.63 457.894 542.75 458.074 542.85 458.244C542.94 458.384 543.02 458.534 543.1 458.674C543.312 459.034 543.493 459.412 543.64 459.804C543.749 460.07 543.84 460.344 543.91 460.624C543.986 460.889 544.043 461.16 544.08 461.434Z" fill="black"/>
</g>
<defs>
<clipPath id="clip0_1209_453622">
<rect width="786.82" height="572.258" fill="white" transform="translate(0.0900269)"/>
</clipPath>
</defs>
</svg>
